<svg width="64" height="64" viewBox="0 0 64 64" fill="none" xmlns="http://www.w3.org/2000/svg">
<circle cx="32" cy="32" r="31.5" stroke="#1A1A1A"/>
<circle cx="32" cy="32" r="27.5" stroke="#1A1A1A"/>
<path d="M22.262 32.412C23.03 32.556 23.642 32.904 24.098 33.456C24.566 34.008 24.8 34.722 24.8 35.598C24.8 36.69 24.452 37.53 23.756 38.118C23.072 38.706 22.196 39 21.128 39H16.16C16.064 39 15.98 38.964 15.908 38.892C15.836 38.82 15.8 38.736 15.8 38.64V26.76C15.8 26.664 15.836 26.58 15.908 26.508C15.98 26.436 16.064 26.4 16.16 26.4H21.002C21.962 26.4 22.73 26.676 23.306 27.228C23.882 27.78 24.17 28.524 24.17 29.46C24.17 30.132 24.002 30.744 23.666 31.296C23.33 31.836 22.862 32.208 22.262 32.412ZM23.414 29.442C23.414 28.734 23.192 28.17 22.748 27.75C22.316 27.33 21.704 27.12 20.912 27.12H16.556V32.178H20.912C21.656 32.166 22.256 31.926 22.712 31.458C23.18 30.978 23.414 30.306 23.414 29.442ZM21.038 38.28C21.938 38.28 22.664 38.058 23.216 37.614C23.768 37.158 24.044 36.486 24.044 35.598C24.044 34.71 23.768 34.044 23.216 33.6C22.664 33.144 21.938 32.916 21.038 32.916H16.556V38.28H21.038ZM36.417 26.4C36.525 26.4 36.609 26.436 36.669 26.508C36.741 26.58 36.777 26.664 36.777 26.76V34.536C36.777 35.376 36.567 36.15 36.147 36.858C35.727 37.566 35.163 38.13 34.455 38.55C33.747 38.97 32.979 39.18 32.151 39.18C31.311 39.18 30.537 38.97 29.829 38.55C29.121 38.13 28.557 37.566 28.137 36.858C27.717 36.15 27.507 35.376 27.507 34.536V26.76C27.507 26.652 27.543 26.568 27.615 26.508C27.687 26.436 27.777 26.4 27.885 26.4C27.993 26.4 28.083 26.436 28.155 26.508C28.227 26.58 28.263 26.664 28.263 26.76V34.536C28.263 35.244 28.437 35.898 28.785 36.498C29.133 37.098 29.601 37.578 30.189 37.938C30.789 38.286 31.443 38.46 32.151 38.46C32.859 38.46 33.507 38.286 34.095 37.938C34.695 37.578 35.169 37.098 35.517 36.498C35.877 35.898 36.057 35.244 36.057 34.536V26.76C36.057 26.664 36.087 26.58 36.147 26.508C36.219 26.436 36.309 26.4 36.417 26.4ZM47.8844 26.67C47.8844 26.73 47.8604 26.808 47.8124 26.904L43.7084 32.484V38.64C43.7084 38.736 43.6724 38.82 43.6004 38.892C43.5284 38.964 43.4384 39 43.3304 39C43.2224 39 43.1324 38.964 43.0604 38.892C42.9884 38.82 42.9524 38.736 42.9524 38.64V32.556L38.8304 26.904C38.7824 26.844 38.7584 26.766 38.7584 26.67C38.7584 26.586 38.7944 26.508 38.8664 26.436C38.9504 26.364 39.0404 26.328 39.1364 26.328C39.2684 26.328 39.3704 26.382 39.4424 26.49L43.3304 31.8L47.2184 26.49C47.2904 26.382 47.3924 26.328 47.5244 26.328C47.6324 26.328 47.7164 26.37 47.7764 26.454C47.8484 26.526 47.8844 26.598 47.8844 26.67Z" fill="#1A1A1A"/>
<circle cx="32" cy="32" r="31.5" fill="white" stroke="#1A1A1A"/>
<circle cx="32" cy="32" r="27.5" stroke="#1A1A1A"/>
<path d="M22.262 32.412C23.03 32.556 23.642 32.904 24.098 33.456C24.566 34.008 24.8 34.722 24.8 35.598C24.8 36.69 24.452 37.53 23.756 38.118C23.072 38.706 22.196 39 21.128 39H16.16C16.064 39 15.98 38.964 15.908 38.892C15.836 38.82 15.8 38.736 15.8 38.64V26.76C15.8 26.664 15.836 26.58 15.908 26.508C15.98 26.436 16.064 26.4 16.16 26.4H21.002C21.962 26.4 22.73 26.676 23.306 27.228C23.882 27.78 24.17 28.524 24.17 29.46C24.17 30.132 24.002 30.744 23.666 31.296C23.33 31.836 22.862 32.208 22.262 32.412ZM23.414 29.442C23.414 28.734 23.192 28.17 22.748 27.75C22.316 27.33 21.704 27.12 20.912 27.12H16.556V32.178H20.912C21.656 32.166 22.256 31.926 22.712 31.458C23.18 30.978 23.414 30.306 23.414 29.442ZM21.038 38.28C21.938 38.28 22.664 38.058 23.216 37.614C23.768 37.158 24.044 36.486 24.044 35.598C24.044 34.71 23.768 34.044 23.216 33.6C22.664 33.144 21.938 32.916 21.038 32.916H16.556V38.28H21.038ZM36.417 26.4C36.525 26.4 36.609 26.436 36.669 26.508C36.741 26.58 36.777 26.664 36.777 26.76V34.536C36.777 35.376 36.567 36.15 36.147 36.858C35.727 37.566 35.163 38.13 34.455 38.55C33.747 38.97 32.979 39.18 32.151 39.18C31.311 39.18 30.537 38.97 29.829 38.55C29.121 38.13 28.557 37.566 28.137 36.858C27.717 36.15 27.507 35.376 27.507 34.536V26.76C27.507 26.652 27.543 26.568 27.615 26.508C27.687 26.436 27.777 26.4 27.885 26.4C27.993 26.4 28.083 26.436 28.155 26.508C28.227 26.58 28.263 26.664 28.263 26.76V34.536C28.263 35.244 28.437 35.898 28.785 36.498C29.133 37.098 29.601 37.578 30.189 37.938C30.789 38.286 31.443 38.46 32.151 38.46C32.859 38.46 33.507 38.286 34.095 37.938C34.695 37.578 35.169 37.098 35.517 36.498C35.877 35.898 36.057 35.244 36.057 34.536V26.76C36.057 26.664 36.087 26.58 36.147 26.508C36.219 26.436 36.309 26.4 36.417 26.4ZM47.8844 26.67C47.8844 26.73 47.8604 26.808 47.8124 26.904L43.7084 32.484V38.64C43.7084 38.736 43.6724 38.82 43.6004 38.892C43.5284 38.964 43.4384 39 43.3304 39C43.2224 39 43.1324 38.964 43.0604 38.892C42.9884 38.82 42.9524 38.736 42.9524 38.64V32.556L38.8304 26.904C38.7824 26.844 38.7584 26.766 38.7584 26.67C38.7584 26.586 38.7944 26.508 38.8664 26.436C38.9504 26.364 39.0404 26.328 39.1364 26.328C39.2684 26.328 39.3704 26.382 39.4424 26.49L43.3304 31.8L47.2184 26.49C47.2904 26.382 47.3924 26.328 47.5244 26.328C47.6324 26.328 47.7164 26.37 47.7764 26.454C47.8484 26.526 47.8844 26.598 47.8844 26.67Z" fill="#1A1A1A"/>
</svg>
