<svg width="35" height="35" viewBox="0 0 35 35" fill="none" xmlns="http://www.w3.org/2000/svg">
<g clip-path="url(#clip0)">
<path d="M34.6704 17.3352C34.6704 7.76021 26.9102 0 17.3352 0C7.76021 0 0 7.76021 0 17.3352C0 26.9102 7.76021 34.6704 17.3352 34.6704C17.4368 34.6704 17.5383 34.6704 17.6399 34.6636V21.1747H13.9156V16.8341H17.6399V13.6379C17.6399 9.93388 19.9016 7.91596 23.2062 7.91596C24.7907 7.91596 26.1518 8.03107 26.5445 8.08525V11.9586H24.2693C22.4748 11.9586 22.1227 12.8118 22.1227 14.0645V16.8273H26.4226L25.8606 21.1679H22.1227V34C29.3683 31.9212 34.6704 25.2512 34.6704 17.3352Z" fill="#1A1A1A"/>
</g>
<defs>
<clipPath id="clip0">
<rect width="34.6704" height="34.6704" fill="white"/>
</clipPath>
</defs>
</svg>
