<svg width="173" height="330" viewBox="0 0 173 330" fill="none" xmlns="http://www.w3.org/2000/svg">
<path d="M29.5316 139.675L57.4841 107.56C53.357 87.8451 48.1197 68.3781 41.7974 49.2519L25.2767 59.0997L39.5886 42.6569C31.5357 19.0843 24.7085 3.98315 24.7085 3.98315C24.7085 3.98315 -31.5498 69.7853 -57.8074 144.188L-34.8609 193.757L-63.6785 162.869C-66.108 171.626 -67.9837 180.526 -69.2943 189.518C-82.2062 280.22 -63.0121 357.964 -26.4228 363.163C10.1664 368.363 50.295 299.049 63.2069 208.347C67.2097 180.229 65.028 149.906 60.1154 121.444L29.5316 139.675Z" fill="#FECCC4"/>
<path d="M69.652 108.343C65.6712 108.415 60.4825 109.92 56.4927 116.774C48.7087 130.174 56.6706 142.772 49.7973 157.002C47.9466 160.779 45.3032 164.104 42.0367 166.763C36.6316 171.179 31.5352 172.623 26.3036 175.337C19.6395 178.816 14.2033 184.161 10.6492 190.73C6.74144 197.984 4.67174 206.116 4.61139 214.452C4.63309 221.44 6.16453 226.921 7.2327 232.854C8.52852 240.404 9.14219 248.03 9.0664 255.641C9.11978 259.363 8.77661 263.066 8.04255 266.689C7.06707 271.241 5.21005 275.994 3.38317 280.642L-12.8441 321.989C-15.003 327.496 -17.1956 333.089 -18.4932 338.527C-19.9824 344.789 -20.2067 350.468 -20.4065 356.008C-20.8339 367.951 -21.1887 380.368 -17.5254 387.671C-13.862 394.973 -4.77824 395.134 3.33972 384.256C11.0622 373.906 14.77 358.395 22.0874 347.098C33.6139 329.3 48.1181 330.265 60.1621 313.561C71.7119 297.534 74.5433 274.927 83.0266 255.432C89.0924 241.485 97.9334 229.564 104.662 215.963C114.373 196.354 118.905 174.564 118.707 157.508C118.508 140.451 114.083 127.633 108.306 117.281C105.86 112.897 103.085 108.834 99.0516 107.462C94.7585 106.001 89.6981 110.402 85.0055 110.901C79.6004 111.514 75.0256 108.231 69.652 108.343Z" fill="#89A8A7"/>
<path opacity="0.5" d="M94.9126 107.528C94.9126 107.528 44.5624 291.202 -11.8969 392.567" stroke="#13514E" stroke-width="2" stroke-miterlimit="10"/>
<path opacity="0.5" d="M56.0847 117.634C56.0847 117.634 82.4855 155.938 63.0815 210.814" stroke="#13514E" stroke-width="2" stroke-miterlimit="10"/>
<path opacity="0.5" d="M8.64838 194.818C8.64838 194.818 60.7509 219.733 49.28 250.68" stroke="#13514E" stroke-width="2" stroke-miterlimit="10"/>
<path opacity="0.5" d="M118.922 157.16C118.922 157.16 92.4371 170.383 60.3347 218.97" stroke="#13514E" stroke-width="2" stroke-miterlimit="10"/>
<path opacity="0.5" d="M59.7758 313.803C59.7758 313.803 42.0154 321.522 39.3108 277.817" stroke="#13514E" stroke-width="2" stroke-miterlimit="10"/>
<path opacity="0.5" d="M-10.7439 320.6C-10.7439 320.6 20.9067 324.631 28.1348 306.517" stroke="#13514E" stroke-width="2" stroke-miterlimit="10"/>
</svg>
