<svg width="396" height="390" viewBox="0 0 396 390" fill="none" xmlns="http://www.w3.org/2000/svg">
<circle opacity="0.5" cx="294.5" cy="289.5" r="16.5" fill="#FECCC4"/>
<circle opacity="0.5" cx="49.5" cy="230.5" r="43.5" fill="#13514E"/>
<circle opacity="0.5" cx="285.5" cy="125.5" r="45.5" fill="#FECCC4"/>
<path d="M216.532 139.675L244.484 107.56C240.357 87.8451 235.12 68.3781 228.797 49.2519L212.277 59.0997L226.589 42.6569C218.536 19.0843 211.708 3.98315 211.708 3.98315C211.708 3.98315 155.45 69.7853 129.193 144.188L152.139 193.757L123.322 162.869C120.892 171.626 119.016 180.526 117.706 189.518C104.794 280.22 123.988 357.964 160.577 363.163C197.166 368.363 237.295 299.049 250.207 208.347C254.21 180.229 252.028 149.906 247.115 121.444L216.532 139.675Z" fill="#FECCC4"/>
<path d="M123.329 62.0163C123.329 62.0163 166.429 113.081 134.011 180.788C101.593 248.496 163.954 370.827 163.954 370.827C163.954 370.827 163.189 370.644 161.779 370.274C66.5845 345.085 27.8353 230.374 88.4506 152.63C110.994 123.737 130.384 89.2421 123.329 62.0163Z" fill="#89A8A7"/>
<path d="M123.328 62.0164C123.328 62.0164 145.054 122.006 114.546 166.907C84.0375 211.809 94.9696 345.913 163.954 370.827" stroke="#13514E" stroke-width="2" stroke-miterlimit="10"/>
<path d="M23.5706 245.619C23.5706 245.619 77.9773 241.552 78.8267 290.152C79.6761 338.751 177.463 353.667 177.463 353.667L175.522 354.736C89.8542 401.324 13.7976 375.446 31.5462 305.596C38.0512 279.546 39.9135 253.04 23.5706 245.619Z" fill="#FECCC4"/>
<path d="M23.5706 245.619C23.5706 245.619 64.4752 258.315 57.8744 295.933C51.2735 333.552 112.77 384.567 177.466 353.628" stroke="#13514E" stroke-width="2" stroke-miterlimit="10"/>
<path d="M292.652 98.343C288.671 98.415 283.483 99.9204 279.493 106.774C271.709 120.174 279.671 132.772 272.797 147.002C270.947 150.779 268.303 154.104 265.037 156.763C259.632 161.179 254.535 162.623 249.304 165.337C242.64 168.816 237.203 174.161 233.649 180.73C229.742 187.984 227.672 196.116 227.612 204.452C227.633 211.44 229.165 216.921 230.233 222.854C231.529 230.404 232.142 238.03 232.067 245.641C232.12 249.363 231.777 253.066 231.043 256.689C230.067 261.241 228.21 265.994 226.383 270.642L210.156 311.989C207.997 317.496 205.804 323.089 204.507 328.527C203.018 334.789 202.793 340.468 202.594 346.008C202.166 357.951 201.811 370.368 205.475 377.671C209.138 384.973 218.222 385.134 226.34 374.256C234.062 363.906 237.77 348.395 245.088 337.098C256.614 319.3 271.118 320.265 283.162 303.561C294.712 287.534 297.543 264.927 306.027 245.432C312.093 231.485 320.934 219.564 327.662 205.963C337.373 186.354 341.906 164.564 341.707 147.508C341.508 130.451 337.083 117.633 331.306 107.281C328.86 102.897 326.085 98.8335 322.052 97.4616C317.759 96.0013 312.698 100.402 308.006 100.901C302.601 101.514 298.026 98.2309 292.652 98.343Z" fill="#89A8A7"/>
<path opacity="0.5" d="M317.913 97.5283C317.913 97.5283 267.562 281.202 211.103 382.567" stroke="#13514E" stroke-width="2" stroke-miterlimit="10"/>
<path opacity="0.5" d="M279.085 107.634C279.085 107.634 305.486 145.938 286.082 200.814" stroke="#13514E" stroke-width="2" stroke-miterlimit="10"/>
<path opacity="0.5" d="M231.648 184.818C231.648 184.818 283.751 209.733 272.28 240.68" stroke="#13514E" stroke-width="2" stroke-miterlimit="10"/>
<path opacity="0.5" d="M341.922 147.16C341.922 147.16 315.437 160.383 283.335 208.97" stroke="#13514E" stroke-width="2" stroke-miterlimit="10"/>
<path opacity="0.5" d="M282.776 303.803C282.776 303.803 265.016 311.522 262.311 267.817" stroke="#13514E" stroke-width="2" stroke-miterlimit="10"/>
<path opacity="0.5" d="M212.256 310.6C212.256 310.6 243.907 314.631 251.135 296.517" stroke="#13514E" stroke-width="2" stroke-miterlimit="10"/>
<circle cx="283" cy="336" r="3" fill="#13514E"/>
<circle cx="3" cy="300" r="3" fill="#13514E"/>
<circle cx="263" cy="87" r="3" fill="#FECCC4"/>
<circle cx="37" cy="131" r="3" fill="#FECCC4"/>
</svg>
