<svg width="196" height="334" viewBox="0 0 196 334" fill="none" xmlns="http://www.w3.org/2000/svg">
<path d="M111.883 325.153C111.883 325.153 59.8793 283.19 78.8661 210.563C97.8529 137.936 13.4205 29.6538 13.4205 29.6538C13.4205 29.6538 14.2061 29.6887 15.6609 29.7842C113.905 36.4594 173.709 141.739 128.94 229.569C112.286 262.213 99.7912 299.759 111.883 325.153Z" fill="#89A8A7"/>
<path d="M111.883 325.153C111.883 325.153 79.1726 270.373 100.61 220.5C122.048 170.627 85.878 41.0312 13.4206 29.6536" stroke="white" stroke-width="2" stroke-miterlimit="10"/>
<path d="M175.004 125.962C175.004 125.962 122.357 140.274 112.304 92.7181C102.252 45.1618 3.41171 49.0645 3.41171 49.0645L5.11432 47.6465C80.3903 -14.3442 159.975 -3.36258 155.797 68.5857C154.352 95.3973 157.551 121.775 175.004 125.962Z" fill="#FECCC4"/>
<path d="M175.004 125.961C175.004 125.961 132.434 121.254 131.78 83.0668C131.125 44.8792 61.0689 6.45437 3.41598 49.1037" stroke="#13514E" stroke-width="2" stroke-miterlimit="10"/>
</svg>
