<svg width="134" height="247" viewBox="0 0 134 247" fill="none" xmlns="http://www.w3.org/2000/svg">
<path d="M18.4839 139.289C20.8882 142.462 25.1627 145.767 33.051 144.95C48.4641 143.341 53.9482 129.484 69.4948 126.649C73.6373 125.918 77.8813 126.094 81.9544 127.165C88.7074 128.929 92.8779 132.195 98.1542 134.822C104.892 138.155 112.414 139.396 119.816 138.396C127.979 137.277 135.768 134.156 142.538 129.291C148.171 125.155 151.696 120.687 155.859 116.328C161.195 110.831 166.994 105.84 173.186 101.416C176.162 99.1791 179.355 97.2738 182.715 95.7313C186.967 93.8365 191.902 92.5348 196.733 91.2716L239.7 80.0105C245.421 78.5085 251.232 76.9834 256.389 74.8267C262.326 72.3388 267.045 69.1731 271.639 66.069C281.538 59.3755 291.779 52.3431 295.519 45.0796C299.259 37.8162 294.035 30.3832 280.462 30.2369C267.55 30.0982 252.834 36.2449 239.395 36.992C218.224 38.1705 210.454 25.885 189.861 26.0005C170.107 26.1161 150.174 37.1537 129.426 41.7907C114.584 45.1104 99.7422 44.9949 84.7892 47.5753C63.2242 51.2879 42.9504 60.4692 29.2886 70.6828C15.6269 80.8963 7.87949 92.0264 2.92236 102.795C0.82226 107.354 -0.825167 111.991 0.443799 116.058C1.79439 120.387 8.33216 121.881 11.5009 125.378C15.1816 129.384 15.2261 135.014 18.4839 139.289Z" fill="#13514E"/>
<path d="M2.93726 119.363C2.93726 119.363 180.993 51.7808 296.157 37.6467" stroke="white" stroke-width="2" stroke-miterlimit="10"/>
<path d="M33.9861 144.773C33.9861 144.773 49.3695 100.869 105.137 84.2007" stroke="white" stroke-width="2" stroke-miterlimit="10"/>
<path d="M124.298 137.602C124.298 137.602 113.716 80.8269 145.477 71.8535" stroke="white" stroke-width="2" stroke-miterlimit="10"/>
<path d="M28.8805 70.7137C28.8805 70.7137 55.1726 84.3163 113.345 81.6127" stroke="white" stroke-width="2" stroke-miterlimit="10"/>
<path d="M114.161 122.823L84.8564 135.258C81.1758 149.862 78.3226 164.662 76.3103 179.589L90.6396 178.378L75.6358 184.745C73.331 203.227 72.976 215.613 72.976 215.613C72.976 215.613 132.336 189.801 174.347 148.385L175.152 107.552L184.41 137.75C188.91 132.659 193.085 127.29 196.91 121.675C235.285 64.9336 247.837 6.3907 224.944 -9.08402C202.052 -24.5587 152.384 8.89474 114.008 65.6364C102.111 83.2268 93.6497 104.324 87.6335 125.064L114.161 122.823Z" fill="#FECCC4"/>
</svg>
