<svg width="189" height="331" viewBox="0 0 189 331" fill="none" xmlns="http://www.w3.org/2000/svg">
<path d="M110.329 7.01645C110.329 7.01645 153.429 58.0809 121.011 125.789C88.5929 193.496 150.954 315.827 150.954 315.827C150.954 315.827 150.189 315.644 148.779 315.274C53.5848 290.085 14.8355 175.374 75.4509 97.6301C97.9945 68.737 117.384 34.2423 110.329 7.01645Z" fill="#13514E"/>
<path d="M110.329 7.01628C110.329 7.01628 132.055 67.006 101.546 111.907C71.0378 156.808 81.9699 290.912 150.954 315.827" stroke="white" stroke-width="2" stroke-miterlimit="10"/>
<path d="M10.5708 190.619C10.5708 190.619 64.9775 186.552 65.8269 235.152C66.6764 283.751 164.463 298.667 164.463 298.667L162.522 299.737C76.8544 346.324 0.797803 320.446 18.5465 250.596C25.0514 224.546 26.9137 198.04 10.5708 190.619Z" fill="#FECCC4"/>
<path d="M10.5708 190.619C10.5708 190.619 51.4754 203.315 44.8746 240.934C38.2738 278.552 99.7701 329.568 164.466 298.628" stroke="#13514E" stroke-width="2" stroke-miterlimit="10"/>
</svg>
