<svg width="131" height="305" viewBox="0 0 131 305" fill="none" xmlns="http://www.w3.org/2000/svg">
<path d="M110.329 7.01645C110.329 7.01645 153.429 58.0809 121.011 125.789C88.593 193.496 150.954 315.827 150.954 315.827C150.954 315.827 150.189 315.644 148.779 315.274C53.5849 290.085 14.8357 175.374 75.451 97.6301C97.9946 68.737 117.384 34.2423 110.329 7.01645Z" fill="#13514E"/>
<path d="M110.329 7.0164C110.329 7.0164 132.055 67.0062 101.546 111.907C71.0379 156.809 81.9699 290.913 150.954 315.827" stroke="white" stroke-width="2" stroke-miterlimit="10"/>
<path d="M10.571 190.619C10.571 190.619 64.9776 186.552 65.8271 235.152C66.6765 283.751 164.463 298.667 164.463 298.667L162.522 299.736C76.8545 346.324 0.797925 320.446 18.5466 250.596C25.0515 224.546 26.9138 198.04 10.571 190.619Z" fill="#FECCC4"/>
<path d="M10.5709 190.619C10.5709 190.619 51.4756 203.315 44.8747 240.933C38.2739 278.552 99.7703 329.567 164.466 298.628" stroke="#13514E" stroke-width="2" stroke-miterlimit="10"/>
</svg>
