<svg width="272" height="310" viewBox="0 0 272 310" fill="none" xmlns="http://www.w3.org/2000/svg">
<path d="M168.652 18.343C164.671 18.415 159.483 19.9204 155.493 26.7742C147.709 40.1744 155.671 52.7718 148.797 67.0018C146.947 70.7793 144.303 74.1042 141.037 76.763C135.632 81.1787 130.535 82.623 125.304 85.3372C118.64 88.8156 113.203 94.1609 109.649 100.73C105.742 107.984 103.672 116.116 103.612 124.452C103.633 131.44 105.165 136.921 106.233 142.854C107.529 150.404 108.142 158.03 108.067 165.641C108.12 169.363 107.777 173.066 107.043 176.689C106.067 181.241 104.21 185.994 102.383 190.642L86.156 231.989C83.9971 237.496 81.8045 243.089 80.5069 248.527C79.0177 254.789 78.7934 260.468 78.5936 266.008C78.1662 277.951 77.8114 290.368 81.4747 297.671C85.1381 304.973 94.2219 305.134 102.34 294.256C110.062 283.906 113.77 268.395 121.088 257.098C132.614 239.3 147.118 240.265 159.162 223.561C170.712 207.534 173.543 184.927 182.027 165.432C188.093 151.485 196.934 139.564 203.662 125.963C213.373 106.354 217.906 84.5643 217.707 67.5079C217.508 50.4515 213.083 37.6328 207.306 27.2815C204.86 22.8974 202.085 18.8335 198.052 17.4616C193.759 16.0013 188.698 20.4021 184.006 20.9008C178.601 21.5135 174.026 18.2309 168.652 18.343Z" fill="#89A8A7"/>
<path opacity="0.5" d="M193.913 17.5283C193.913 17.5283 143.562 201.202 87.1031 302.567" stroke="#13514E" stroke-width="2" stroke-miterlimit="10"/>
<path opacity="0.5" d="M155.085 27.634C155.085 27.634 181.486 65.9385 162.082 120.814" stroke="#13514E" stroke-width="2" stroke-miterlimit="10"/>
<path opacity="0.5" d="M107.648 104.818C107.648 104.818 159.751 129.733 148.28 160.68" stroke="#13514E" stroke-width="2" stroke-miterlimit="10"/>
<path opacity="0.5" d="M217.922 67.16C217.922 67.16 191.437 80.3826 159.335 128.97" stroke="#13514E" stroke-width="2" stroke-miterlimit="10"/>
<path opacity="0.5" d="M158.776 223.803C158.776 223.803 141.016 231.522 138.311 187.817" stroke="#13514E" stroke-width="2" stroke-miterlimit="10"/>
<path opacity="0.5" d="M88.2563 230.6C88.2563 230.6 119.907 234.631 127.135 216.517" stroke="#13514E" stroke-width="2" stroke-miterlimit="10"/>
</svg>
