<svg width="297" height="121" viewBox="0 0 297 121" fill="none" xmlns="http://www.w3.org/2000/svg">
<path d="M18.4839 114.289C20.8882 117.462 25.1627 120.767 33.051 119.95C48.4641 118.341 53.9482 104.484 69.4948 101.649C73.6373 100.918 77.8813 101.094 81.9544 102.165C88.7074 103.929 92.8779 107.195 98.1542 109.822C104.892 113.155 112.414 114.396 119.816 113.396C127.979 112.277 135.768 109.156 142.538 104.291C148.171 100.155 151.696 95.6874 155.859 91.3278C161.195 85.8307 166.994 80.8402 173.186 76.4158C176.162 74.1791 179.355 72.2738 182.715 70.7313C186.967 68.8365 191.902 67.5348 196.733 66.2716L239.7 55.0105C245.421 53.5085 251.232 51.9834 256.389 49.8267C262.326 47.3388 267.045 44.1731 271.639 41.069C281.538 34.3755 291.779 27.3431 295.519 20.0796C299.259 12.8162 294.035 5.38324 280.462 5.23689C267.55 5.09825 252.834 11.2449 239.395 11.992C218.224 13.1705 210.454 0.884979 189.861 1.00052C170.107 1.11605 150.174 12.1537 129.426 16.7907C114.584 20.1104 99.7422 19.9949 84.7892 22.5752C63.2242 26.2879 42.9504 35.4692 29.2886 45.6828C15.6269 55.8963 7.87949 67.0264 2.92236 77.7945C0.822259 82.3544 -0.825167 86.9913 0.443799 91.0583C1.79439 95.3871 8.33216 96.8813 11.5009 100.378C15.1816 104.384 15.2261 110.014 18.4839 114.289Z" fill="#13514E"/>
<path d="M2.93726 94.3625C2.93726 94.3625 180.993 26.7808 296.157 12.6467" stroke="white" stroke-width="2" stroke-miterlimit="10"/>
<path d="M33.9861 119.773C33.9861 119.773 49.3695 75.869 105.137 59.2007" stroke="white" stroke-width="2" stroke-miterlimit="10"/>
<path d="M124.298 112.602C124.298 112.602 113.716 55.8269 145.477 46.8535" stroke="white" stroke-width="2" stroke-miterlimit="10"/>
<path d="M28.8806 45.7137C28.8806 45.7137 55.1727 59.3163 113.345 56.6127" stroke="white" stroke-width="2" stroke-miterlimit="10"/>
<path d="M190.284 1.17008C190.284 1.17008 206.988 10.9677 173.275 38.9124" stroke="white" stroke-width="2" stroke-miterlimit="10"/>
<path d="M237.34 54.1326C237.34 54.1326 221.941 26.1879 203.048 31.0251" stroke="white" stroke-width="2" stroke-miterlimit="10"/>
</svg>
