<svg width="297" height="286" viewBox="0 0 297 286" fill="none" xmlns="http://www.w3.org/2000/svg">
<path d="M18.4839 178.289C20.8882 181.462 25.1627 184.767 33.051 183.95C48.4641 182.341 53.9482 168.484 69.4948 165.649C73.6373 164.918 77.8813 165.094 81.9544 166.165C88.7074 167.929 92.8779 171.195 98.1542 173.822C104.892 177.155 112.414 178.396 119.816 177.396C127.979 176.277 135.768 173.156 142.538 168.291C148.171 164.155 151.696 159.687 155.859 155.328C161.195 149.831 166.994 144.84 173.186 140.416C176.162 138.179 179.355 136.274 182.715 134.731C186.967 132.837 191.902 131.535 196.733 130.272L239.7 119.011C245.421 117.509 251.232 115.983 256.389 113.827C262.326 111.339 267.045 108.173 271.639 105.069C281.538 98.3755 291.779 91.3431 295.519 84.0796C299.259 76.8162 294.035 69.3832 280.462 69.2369C267.55 69.0982 252.834 75.2449 239.395 75.992C218.224 77.1705 210.454 64.885 189.861 65.0005C170.107 65.1161 150.174 76.1537 129.426 80.7907C114.584 84.1104 99.7422 83.9949 84.7892 86.5753C63.2242 90.2879 42.9504 99.4692 29.2886 109.683C15.6269 119.896 7.87949 131.026 2.92236 141.795C0.82226 146.354 -0.825167 150.991 0.443799 155.058C1.79439 159.387 8.33216 160.881 11.5009 164.378C15.1816 168.384 15.2261 174.014 18.4839 178.289Z" fill="#13514E"/>
<path d="M2.93726 158.363C2.93726 158.363 180.993 90.7808 296.157 76.6467" stroke="white" stroke-width="2" stroke-miterlimit="10"/>
<path d="M33.9861 183.773C33.9861 183.773 49.3695 139.869 105.137 123.201" stroke="white" stroke-width="2" stroke-miterlimit="10"/>
<path d="M124.298 176.602C124.298 176.602 113.716 119.827 145.477 110.853" stroke="white" stroke-width="2" stroke-miterlimit="10"/>
<path d="M28.8806 109.714C28.8806 109.714 55.1727 123.316 113.345 120.613" stroke="white" stroke-width="2" stroke-miterlimit="10"/>
<path d="M190.284 65.1701C190.284 65.1701 206.988 74.9677 173.275 102.912" stroke="white" stroke-width="2" stroke-miterlimit="10"/>
<path d="M237.34 118.133C237.34 118.133 221.941 90.1879 203.048 95.0251" stroke="white" stroke-width="2" stroke-miterlimit="10"/>
<path d="M114.161 161.823L84.8564 174.258C81.1758 188.862 78.3226 203.662 76.3103 218.589L90.6396 217.378L75.6358 223.745C73.331 242.227 72.976 254.613 72.976 254.613C72.976 254.613 132.336 228.801 174.347 187.385L175.152 146.552L184.41 176.75C188.91 171.659 193.085 166.29 196.91 160.675C235.285 103.934 247.837 45.3907 224.944 29.916C202.052 14.4413 152.384 47.8947 114.008 104.636C102.111 122.227 93.6497 143.324 87.6335 164.064L114.161 161.823Z" fill="#FECCC4"/>
</svg>
