<svg width="838" height="366" viewBox="0 0 838 366" fill="none" xmlns="http://www.w3.org/2000/svg">
<path d="M150.877 117.392L163.907 84.2746C155.139 69.9012 145.566 56.0338 135.234 42.7384L124.978 55.1181L131.649 38.162C118.709 21.8488 109.106 11.8651 109.106 11.8651C109.106 11.8651 83.209 79.437 83.3484 145.388L115.294 178.009L83.9519 161.745C84.4888 169.322 85.5022 176.857 86.9861 184.306C102.198 259.36 139.072 315.223 169.347 309.079C199.621 302.935 211.831 237.111 196.619 162.057C191.903 138.79 181.699 115.517 169.865 94.474L150.877 117.392Z" fill="#FECCC4"/>
<path d="M11.5823 111.146C10.1991 114.173 9.4603 118.629 13.1864 124.111C20.4774 134.818 32.849 133.365 41.0944 143.685C43.2739 146.444 44.8259 149.637 45.6507 153.06C47.0277 158.729 46.2762 163.092 46.4332 168.016C46.6491 174.296 48.7156 180.324 52.3843 185.376C56.4417 190.941 61.8246 195.438 68.0873 198.494C73.3631 201.001 78.0478 201.825 82.9059 203.162C89.0658 204.912 95.0364 207.203 100.746 210.008C103.571 211.312 106.239 212.908 108.705 214.769C111.784 217.148 114.697 220.265 117.541 223.32L142.852 250.484C146.224 254.1 149.648 257.772 153.279 260.714C157.462 264.098 161.662 266.318 165.766 268.469C174.615 273.103 183.848 277.855 190.676 277.73C197.504 277.606 200.905 270.816 195.635 260.768C190.622 251.209 180.268 242.813 174.394 233.217C165.139 218.101 171.103 207.515 162.86 192.404C154.949 177.91 138.928 167.612 127.296 154.177C118.972 144.569 113.178 133.599 105.354 123.615C94.0785 109.214 79.2889 97.9288 66.359 91.9195C53.4292 85.9103 42.1678 84.6174 32.2783 85.2348C28.0901 85.4955 24.0246 86.12 21.5339 88.6652C18.8828 91.3742 20.3731 96.7782 19.0545 100.496C17.5647 104.792 13.4381 107.055 11.5823 111.146Z" fill="#13514E"/>
<path d="M20.0896 91.8096C20.0896 91.8096 140.372 196.09 196.399 275.255" stroke="white" stroke-width="2" stroke-miterlimit="10"/>
<path d="M13.687 124.729C13.687 124.729 52.0963 118.658 86.458 153.102" stroke="white" stroke-width="2" stroke-miterlimit="10"/>
<path d="M54.7439 188.36C54.7439 188.36 92.3398 158.079 111.527 177.901" stroke="white" stroke-width="2" stroke-miterlimit="10"/>
<path d="M66.1746 91.6314C66.1746 91.6314 66.5787 116.372 91.6145 158.117" stroke="white" stroke-width="2" stroke-miterlimit="10"/>
<path d="M162.903 192.783C162.903 192.783 162.309 208.959 128.385 195.216" stroke="white" stroke-width="2" stroke-miterlimit="10"/>
<path d="M142.563 248.399C142.563 248.399 157.031 225.995 145.985 214.005" stroke="white" stroke-width="2" stroke-miterlimit="10"/>
<rect x="92.825" y="87" width="718" height="279" rx="15" fill="#89A8A7"/>
<mask id="mask0" mask-type="alpha" maskUnits="userSpaceOnUse" x="608" y="48" width="230" height="318">
<rect x="608.825" y="48" width="229" height="318" fill="#FFE5E1"/>
</mask>
<g mask="url(#mask0)">
<path d="M616.777 269.648C613.183 271.518 609.371 274.963 609.963 281.673C611.136 294.784 626.206 300.127 628.725 313.413C629.37 316.952 629.01 320.531 627.668 323.919C625.459 329.538 621.693 332.897 618.59 337.223C614.65 342.748 612.987 349.044 613.801 355.351C614.716 362.309 617.854 369.053 622.955 375.024C627.297 379.996 632.087 383.204 636.733 386.945C642.588 391.736 647.866 396.893 652.504 402.353C654.854 404.982 656.831 407.779 658.401 410.698C660.325 414.389 661.568 418.627 662.772 422.775L673.513 459.67C674.946 464.584 676.402 469.573 678.579 474.043C681.091 479.188 684.398 483.339 687.643 487.381C694.639 496.09 701.995 505.106 709.861 508.638C717.726 512.17 726.129 508.133 726.821 496.667C727.479 485.76 721.274 473.007 720.976 461.608C720.504 443.651 734.359 437.71 735.036 420.296C735.681 403.592 724.286 386.179 719.982 368.404C716.901 355.688 717.609 343.148 715.347 330.376C712.095 311.958 702.761 294.351 692.029 282.282C681.298 270.212 669.324 263.095 657.64 258.355C652.693 256.347 647.642 254.718 643.107 255.583C638.279 256.504 636.375 261.955 632.394 264.455C627.832 267.362 621.62 267.112 616.777 269.648Z" fill="#13514E"/>
<path opacity="0.5" d="M639.365 257.522C639.365 257.522 706.947 411.485 718.034 509.557" stroke="#1A1A1A" stroke-width="2" stroke-miterlimit="10"/>
<path opacity="0.5" d="M610.122 282.472C610.122 282.472 657.948 297.716 674.153 345.708" stroke="#1A1A1A" stroke-width="2" stroke-miterlimit="10"/>
<path opacity="0.5" d="M614.501 359.181C614.501 359.181 677.539 353.132 686.195 380.438" stroke="#1A1A1A" stroke-width="2" stroke-miterlimit="10"/>
<path opacity="0.5" d="M692.011 281.935C692.011 281.935 675.979 303.466 676.687 352.778" stroke="#1A1A1A" stroke-width="2" stroke-miterlimit="10"/>
<path d="M712.296 465.616C712.296 465.616 681.826 468.918 697.533 420.33L706.812 419.151L711.352 408.537C711.352 408.537 717.956 393.441 722.438 394.856C726.919 396.272 732.981 397.923 733.96 392.026C734.69 388.657 736.261 385.527 738.527 382.929C740.793 380.331 743.68 378.349 746.918 377.167C753.572 375.044 787.065 353.834 794.377 336.371C801.689 318.908 808.529 314.309 808.529 314.309C808.529 314.309 818.199 314.585 812.067 353.305C812.067 353.305 809.944 366.553 806.878 369.383C803.811 372.213 777.63 399.338 777.63 399.338L764.422 430.708L759.469 446.275C759.469 446.275 771.734 458.304 754.869 470.569C738.005 482.834 716.207 475.758 716.207 475.758L712.296 465.616Z" fill="#FECCC4"/>
<path d="M713.706 459.012L740.531 411.839L765.365 383.535C765.365 383.535 793.196 351.221 796.734 344.617C796.734 344.617 806.169 326.923 806.405 322.562" stroke="#13514E" stroke-miterlimit="10"/>
<path d="M803.575 355.842C803.575 355.842 779.534 363.958 780.115 366.081L782.819 355.842" stroke="#13514E" stroke-miterlimit="10"/>
<path d="M806.406 337.572L796.735 344.618L795.555 338.188" stroke="#13514E" stroke-miterlimit="10"/>
<path d="M724.088 266.546C724.088 266.546 744.609 154.038 752.038 145.193L754.869 147.316C754.869 147.316 726.199 252.709 726.553 284.551C726.553 284.551 706.516 445.65 719.607 495.181C719.607 495.181 721.258 504.298 716.658 505.359C709.564 454.237 709.412 402.389 716.207 351.226" fill="#13514E"/>
<path d="M723.161 284.236C723.161 284.236 735.19 267.607 746.866 266.546" stroke="#13514E" stroke-miterlimit="10"/>
<path d="M753.234 259.116C753.234 259.116 743.907 264.118 744.325 267.012C744.743 269.907 755.534 270.615 755.534 270.615L753.234 259.116Z" fill="#13514E"/>
<path d="M758.718 251.509C758.718 251.509 774.462 240.011 778.708 248.679C782.953 257.347 776.939 260.177 776.939 260.177L765.441 264.069C765.441 264.069 781.185 263.185 777.647 280.167C777.647 280.167 767.209 289.366 761.195 279.106C761.195 279.106 760.133 286.688 756.949 283.958C753.765 281.228 747.22 278.309 752.527 264.998L758.718 251.509Z" fill="#FECCC4"/>
<path d="M759.779 261.062C759.779 261.062 762.256 239.48 754.295 241.426C746.335 243.372 748.104 253.278 748.104 253.278L752.35 263.185L759.779 261.062Z" fill="#FECCC4"/>
<path d="M756.36 262.232C756.544 262.243 756.728 262.217 756.901 262.155C757.158 262.009 757.359 261.783 757.475 261.512C758.127 260.33 758.677 259.094 759.118 257.819C759.229 257.738 759.34 257.92 759.357 258.056L759.692 260.735C759.694 260.884 759.747 261.027 759.843 261.141C759.935 261.212 760.045 261.255 760.161 261.267C760.489 261.351 760.834 261.349 761.162 261.26C761.324 261.212 761.466 261.112 761.565 260.975C761.665 260.839 761.717 260.673 761.713 260.504C762.183 260.394 762.672 260.403 763.137 260.531C763.368 260.598 763.576 260.727 763.739 260.904C763.902 261.081 764.013 261.3 764.061 261.536C764.085 261.675 764.068 261.817 764.013 261.947C763.958 262.077 763.867 262.188 763.75 262.266C763.646 262.315 763.538 262.356 763.427 262.388C762.664 262.673 762.301 263.734 761.488 263.793C761.346 263.803 761.174 263.792 761.092 263.908C761.051 263.982 761.038 264.067 761.055 264.15C761.188 264.676 761.424 265.17 761.749 265.605C762.073 266.039 762.481 266.406 762.948 266.682L764.622 267.989C764.622 268.8 764.528 269.766 763.817 270.156C763.602 270.268 763.358 270.311 763.117 270.28C762.877 270.248 762.652 270.144 762.474 269.98C762.12 269.642 761.973 269.076 761.521 268.89C761.01 268.68 760.433 269.127 760.252 269.648C760.129 270.187 760.089 270.741 760.132 271.291C760.09 272.477 759.601 273.604 758.763 274.444C758.611 274.57 758.488 274.727 758.403 274.905C758.355 275.122 758.343 275.346 758.367 275.567C758.363 275.801 758.293 276.028 758.165 276.224C758.038 276.42 757.858 276.576 757.646 276.675C757.43 276.764 757.19 276.776 756.966 276.71C756.743 276.643 756.548 276.501 756.417 276.308C756.064 275.731 756.44 275.008 756.633 274.359C757.003 273.113 756.652 271.749 756.955 270.485C757.113 269.826 757.443 269.219 757.599 268.56C757.684 268.269 757.686 267.96 757.606 267.667C757.525 267.457 757.404 267.264 757.252 267.098C756.776 266.531 756.212 266.044 755.582 265.656C755.048 265.421 754.593 265.037 754.272 264.55C754.157 264.205 754.13 263.837 754.193 263.479C754.256 263.12 754.407 262.784 754.633 262.498C755.033 262.073 755.778 262.237 756.36 262.232Z" fill="#13514E"/>
<path d="M704.003 281.501C704.003 281.501 710.628 289.753 709.111 292.254C707.594 294.754 697.387 291.183 697.387 291.183L704.003 281.501Z" fill="#13514E"/>
<path d="M701.932 272.356C701.932 272.356 691.943 255.613 684.644 261.929C677.345 268.245 681.773 273.203 681.773 273.203L690.832 281.284C690.832 281.284 676.689 274.309 673.3 291.322C673.3 291.322 679.306 303.871 688.855 296.782C688.855 296.782 686.865 304.175 690.863 302.909C694.862 301.643 702.027 301.518 702.352 287.191L701.932 272.356Z" fill="#FECCC4"/>
<path d="M697.217 280.731C697.217 280.731 703.383 259.901 709.947 264.807C716.511 269.712 711.007 278.136 711.007 278.136L703.224 285.592L697.217 280.731Z" fill="#FECCC4"/>
<path d="M699.907 283.146C699.733 283.084 699.574 282.988 699.438 282.863C699.259 282.629 699.162 282.342 699.162 282.047C699.024 280.704 699.002 279.352 699.095 278.005C699.025 277.888 698.851 278.012 698.782 278.13L697.426 280.464C697.366 280.6 697.26 280.712 697.127 280.779C697.015 280.808 696.897 280.805 696.786 280.77C696.451 280.719 696.134 280.582 695.868 280.373C695.737 280.265 695.646 280.117 695.607 279.952C695.569 279.788 695.587 279.615 695.656 279.461C695.267 279.176 694.813 278.993 694.335 278.928C694.096 278.9 693.854 278.937 693.635 279.036C693.415 279.136 693.228 279.293 693.092 279.492C693.015 279.61 692.974 279.748 692.974 279.889C692.974 280.03 693.015 280.168 693.092 280.286C693.169 280.372 693.252 280.451 693.341 280.524C693.932 281.084 693.851 282.203 694.576 282.575C694.703 282.641 694.865 282.697 694.895 282.837C694.904 282.92 694.883 283.005 694.835 283.074C694.507 283.506 694.096 283.868 693.627 284.141C693.158 284.414 692.64 284.591 692.102 284.663L690.05 285.21C689.733 285.957 689.441 286.883 689.943 287.52C690.097 287.708 690.305 287.843 690.538 287.908C690.772 287.973 691.02 287.964 691.248 287.883C691.706 287.711 692.062 287.248 692.551 287.254C693.103 287.261 693.46 287.897 693.423 288.448C693.325 288.991 693.145 289.517 692.89 290.007C692.464 291.115 692.473 292.343 692.916 293.444C693.007 293.619 693.059 293.812 693.068 294.009C693.026 294.227 692.95 294.438 692.841 294.632C692.754 294.849 692.729 295.086 692.77 295.316C692.81 295.546 692.915 295.76 693.071 295.934C693.235 296.1 693.451 296.206 693.683 296.232C693.915 296.258 694.149 296.204 694.346 296.078C694.897 295.684 694.833 294.872 694.91 294.199C695.057 292.907 695.913 291.79 696.129 290.508C696.242 289.84 696.176 289.152 696.29 288.484C696.326 288.183 696.444 287.898 696.633 287.66C696.79 287.499 696.976 287.368 697.181 287.275C697.841 286.939 698.55 286.712 699.283 286.602C699.866 286.594 700.434 286.418 700.921 286.096C701.161 285.823 701.33 285.495 701.413 285.141C701.495 284.787 701.487 284.417 701.391 284.067C701.189 283.519 700.44 283.379 699.907 283.146Z" fill="#13514E"/>
<path d="M716.843 366.081C716.843 366.081 722.669 345.107 731.196 336.371" stroke="#13514E" stroke-miterlimit="10"/>
<path d="M735.41 318.2C735.41 318.2 735.882 299.567 746.496 299.803C757.11 300.039 758.053 313.247 754.869 318.2C754.869 318.2 770.301 316.549 770.899 329.286C771.498 342.023 756.047 340.607 756.047 340.607C756.047 340.607 754.279 353.816 741.778 355.703C729.278 357.59 731.723 339.664 731.723 339.664C731.723 339.664 717.485 337.777 716.305 329.522C715.126 321.267 724.988 318.149 724.988 318.149L735.41 318.2Z" fill="#FECCC4"/>
<path d="M749.035 328.956C749.326 329.087 749.672 328.993 749.98 329.076C750.286 329.193 750.552 329.396 750.745 329.66C751.393 330.389 752.074 331.43 751.548 332.25C751.01 333.09 749.727 332.87 748.826 332.442C747.925 332.015 746.86 331.478 745.999 331.982L746.201 335.379C746.241 335.61 746.2 335.848 746.085 336.053C745.982 336.157 745.856 336.236 745.718 336.287C745.581 336.337 745.433 336.357 745.287 336.344C744.515 336.381 743.74 336.38 742.968 336.339C743.053 335.133 742.975 333.922 742.735 332.737C742.708 332.475 742.596 332.229 742.415 332.037C742.221 331.896 741.986 331.824 741.746 331.831C740.584 331.773 737.697 332.607 737.283 330.804C736.941 329.312 739.012 329.474 739.749 328.64C741.204 326.992 741.315 324.481 743.51 323.158C745.818 321.767 745.196 322.446 745.712 324.162C745.888 324.745 745.211 325.364 745.702 326.011C746.274 326.766 747.237 325.985 747.781 326.463C748.455 327.057 748.278 328.615 749.035 328.956Z" fill="#13514E"/>
<path opacity="0.1" d="M753.58 319.592C752.791 319.588 752.01 319.758 751.294 320.089C750.578 320.421 749.944 320.906 749.436 321.511C748.432 322.726 747.613 324.084 747.007 325.539" fill="#1A1A1A"/>
<path opacity="0.1" d="M740.531 333.401C739.742 333.397 738.962 333.567 738.246 333.899C737.53 334.23 736.895 334.716 736.388 335.32C735.383 336.535 734.564 337.893 733.959 339.349" fill="#1A1A1A"/>
<path opacity="0.1" d="M739.194 324.715C738.973 323.957 738.588 323.257 738.066 322.666C737.543 322.074 736.897 321.605 736.173 321.291C734.722 320.674 733.187 320.277 731.619 320.112" fill="#1A1A1A"/>
<path opacity="0.1" d="M753.661 341.064C753.564 340.281 753.295 339.529 752.874 338.862C752.453 338.194 751.89 337.627 751.226 337.202C749.891 336.362 748.44 335.725 746.918 335.312" fill="#1A1A1A"/>
<path d="M712.64 225.31C712.64 225.31 704.659 208.466 714.24 203.891C723.82 199.316 730.617 210.68 730.008 216.537C730.008 216.537 743.038 208.105 749.315 219.204C755.592 230.303 741.163 236.006 741.163 236.006C741.163 236.006 745.54 248.593 735.233 255.913C724.925 263.234 719.026 246.131 719.026 246.131C719.026 246.131 705.466 250.866 700.691 244.03C695.916 237.193 703.314 229.963 703.314 229.963L712.64 225.31Z" fill="#FECCC4"/>
<path d="M729.65 228.767C729.969 228.753 730.235 228.514 730.548 228.449C730.873 228.415 731.202 228.476 731.494 228.625C732.4 228.984 733.478 229.605 733.379 230.575C733.277 231.567 732.033 231.949 731.036 231.974C730.038 231.998 728.846 231.999 728.304 232.837L730.017 235.779C730.157 235.967 730.227 236.198 730.217 236.432C730.17 236.722 729.891 236.907 729.636 237.052C728.963 237.434 728.272 237.781 727.564 238.093C727.096 236.978 726.479 235.932 725.732 234.983C725.589 234.761 725.378 234.592 725.131 234.502C724.894 234.464 724.651 234.506 724.441 234.62C723.377 235.092 721.176 237.138 719.994 235.715C719.016 234.538 720.938 233.749 721.219 232.672C721.774 230.545 720.741 228.254 722.104 226.083C723.537 223.801 723.288 224.688 724.523 225.987C724.943 226.428 724.618 227.285 725.347 227.641C726.198 228.057 726.706 226.926 727.407 227.108C728.276 227.334 728.821 228.805 729.65 228.767Z" fill="#13514E"/>
<path opacity="0.1" d="M729.485 218.36C728.779 218.712 728.159 219.216 727.669 219.835C727.179 220.454 726.832 221.173 726.652 221.941C726.303 223.479 726.184 225.059 726.3 226.632" fill="#1A1A1A"/>
<path opacity="0.1" d="M724.065 236.569C723.359 236.922 722.739 237.425 722.249 238.044C721.759 238.663 721.412 239.382 721.232 240.15C720.883 241.688 720.764 243.269 720.88 244.841" fill="#1A1A1A"/>
<path opacity="0.1" d="M718.954 229.419C718.415 228.842 717.755 228.391 717.022 228.099C716.289 227.806 715.501 227.678 714.713 227.724C713.14 227.829 711.591 228.166 710.117 228.726" fill="#1A1A1A"/>
<path opacity="0.1" d="M739.239 237.49C738.799 236.834 738.22 236.284 737.544 235.878C736.867 235.472 736.109 235.22 735.324 235.14C733.754 234.992 732.171 235.078 730.627 235.395" fill="#1A1A1A"/>
<path d="M707.578 290.604C707.578 290.604 724.479 306.615 720.859 315.37" stroke="#13514E" stroke-miterlimit="10"/>
<path d="M699.105 331.752C699.105 331.752 705.731 340.004 704.214 342.505C702.697 345.005 692.489 341.434 692.489 341.434L699.105 331.752Z" fill="#13514E"/>
<path d="M697.035 322.606C697.035 322.606 687.045 305.864 679.746 312.179C672.447 318.495 676.875 323.453 676.875 323.453L685.934 331.534C685.934 331.534 671.791 324.559 668.402 341.572C668.402 341.572 674.408 354.121 683.958 347.033C683.958 347.033 681.967 354.426 685.966 353.16C689.964 351.893 697.13 351.768 697.455 337.441L697.035 322.606Z" fill="#FECCC4"/>
<path d="M692.321 330.981C692.321 330.981 698.486 310.151 705.05 315.057C711.615 319.963 706.111 328.387 706.111 328.387L698.327 335.842L692.321 330.981Z" fill="#FECCC4"/>
<path d="M695.01 333.397C694.836 333.334 694.677 333.238 694.541 333.113C694.362 332.879 694.265 332.592 694.265 332.297C694.127 330.954 694.105 329.602 694.198 328.255C694.128 328.138 693.954 328.262 693.885 328.38L692.529 330.714C692.469 330.851 692.363 330.962 692.23 331.029C692.118 331.058 692 331.055 691.889 331.02C691.554 330.97 691.237 330.833 690.971 330.623C690.84 330.515 690.749 330.368 690.711 330.203C690.672 330.038 690.689 329.865 690.759 329.711C690.37 329.426 689.916 329.243 689.438 329.179C689.199 329.15 688.957 329.187 688.738 329.286C688.518 329.386 688.331 329.543 688.195 329.742C688.118 329.86 688.077 329.998 688.077 330.139C688.077 330.28 688.118 330.418 688.195 330.536C688.272 330.622 688.355 330.701 688.444 330.774C689.035 331.335 688.954 332.453 689.679 332.826C689.806 332.891 689.968 332.947 689.998 333.087C690.007 333.171 689.986 333.255 689.938 333.324C689.61 333.756 689.199 334.119 688.73 334.391C688.261 334.664 687.743 334.842 687.205 334.914L685.153 335.461C684.836 336.207 684.544 337.133 685.046 337.77C685.2 337.958 685.408 338.093 685.641 338.158C685.875 338.223 686.123 338.215 686.351 338.134C686.809 337.961 687.166 337.498 687.655 337.504C688.207 337.511 688.563 338.147 688.526 338.698C688.428 339.242 688.248 339.767 687.993 340.257C687.567 341.365 687.576 342.593 688.019 343.694C688.11 343.869 688.162 344.062 688.171 344.259C688.129 344.478 688.053 344.688 687.944 344.883C687.857 345.099 687.832 345.336 687.873 345.566C687.913 345.797 688.018 346.011 688.174 346.184C688.338 346.351 688.554 346.456 688.786 346.482C689.018 346.508 689.252 346.454 689.449 346.328C689.999 345.934 689.936 345.122 690.013 344.449C690.16 343.157 691.016 342.04 691.232 340.758C691.345 340.09 691.279 339.402 691.393 338.735C691.429 338.433 691.547 338.148 691.736 337.91C691.893 337.749 692.079 337.618 692.284 337.525C692.944 337.189 693.653 336.962 694.385 336.852C694.969 336.844 695.537 336.668 696.024 336.346C696.264 336.073 696.433 335.745 696.516 335.391C696.598 335.037 696.59 334.668 696.494 334.317C696.292 333.769 695.543 333.629 695.01 333.397Z" fill="#13514E"/>
<path d="M702.681 340.854C702.681 340.854 719.582 356.866 715.962 365.62" stroke="#13514E" stroke-miterlimit="10"/>
<path d="M731.66 153.16C731.66 153.16 738.286 161.412 736.769 163.913C735.252 166.413 725.045 162.842 725.045 162.842L731.66 153.16Z" fill="#13514E"/>
<path d="M729.59 144.014C729.59 144.014 719.6 127.272 712.301 133.588C705.003 139.904 709.43 144.862 709.43 144.862L718.489 152.942C718.489 152.942 704.346 145.968 700.957 162.981C700.957 162.981 706.963 175.53 716.513 168.441C716.513 168.441 714.522 175.834 718.521 174.568C722.519 173.302 729.685 173.176 730.01 158.85L729.59 144.014Z" fill="#FECCC4"/>
<path d="M724.875 152.39C724.875 152.39 731.041 131.56 737.605 136.465C744.17 141.371 738.666 149.795 738.666 149.795L730.882 157.251L724.875 152.39Z" fill="#FECCC4"/>
<path d="M727.565 154.805C727.391 154.743 727.232 154.647 727.096 154.522C726.918 154.287 726.821 154.001 726.82 153.706C726.683 152.363 726.66 151.011 726.753 149.664C726.683 149.547 726.509 149.671 726.441 149.789L725.084 152.123C725.024 152.259 724.919 152.37 724.786 152.437C724.673 152.467 724.555 152.464 724.445 152.429C724.109 152.378 723.793 152.241 723.526 152.032C723.396 151.924 723.304 151.776 723.266 151.611C723.228 151.446 723.245 151.273 723.314 151.119C722.925 150.835 722.471 150.652 721.994 150.587C721.755 150.558 721.512 150.596 721.293 150.695C721.074 150.794 720.886 150.952 720.75 151.151C720.674 151.269 720.633 151.407 720.633 151.548C720.633 151.689 720.674 151.826 720.75 151.945C720.827 152.03 720.91 152.11 721 152.182C721.591 152.743 721.51 153.862 722.234 154.234C722.361 154.299 722.524 154.356 722.554 154.495C722.562 154.579 722.541 154.663 722.494 154.733C722.165 155.164 721.755 155.527 721.286 155.8C720.817 156.073 720.299 156.25 719.761 156.322L717.709 156.869C717.392 157.616 717.1 158.542 717.602 159.179C717.755 159.366 717.963 159.502 718.197 159.567C718.43 159.632 718.678 159.623 718.906 159.542C719.364 159.37 719.721 158.906 720.21 158.912C720.762 158.919 721.118 159.556 721.081 160.106C720.983 160.65 720.804 161.176 720.548 161.666C720.122 162.774 720.132 164.001 720.574 165.103C720.665 165.278 720.717 165.47 720.726 165.667C720.685 165.886 720.608 166.097 720.5 166.291C720.412 166.508 720.387 166.745 720.428 166.975C720.469 167.205 720.573 167.419 720.73 167.592C720.893 167.759 721.109 167.864 721.342 167.891C721.574 167.917 721.808 167.862 722.004 167.737C722.555 167.343 722.491 166.53 722.568 165.858C722.715 164.566 723.572 163.448 723.788 162.166C723.9 161.499 723.834 160.81 723.948 160.143C723.984 159.842 724.103 159.557 724.291 159.319C724.448 159.157 724.634 159.027 724.839 158.934C725.499 158.598 726.209 158.37 726.941 158.26C727.524 158.253 728.093 158.077 728.579 157.755C728.82 157.482 728.989 157.154 729.071 156.8C729.153 156.445 729.146 156.076 729.05 155.726C728.847 155.178 728.098 155.037 727.565 154.805Z" fill="#13514E"/>
<path d="M735.236 162.263C735.236 162.263 748.958 171.229 745.337 179.983" stroke="#13514E" stroke-miterlimit="10"/>
<path d="M741.059 106.567C741.059 106.567 747.685 114.819 746.167 117.32C744.65 119.82 734.443 116.249 734.443 116.249L741.059 106.567Z" fill="#13514E"/>
<path d="M738.988 97.4212C738.988 97.4212 728.999 80.6792 721.7 86.9948C714.401 93.3105 718.829 98.2685 718.829 98.2685L727.888 106.349C727.888 106.349 713.745 99.3748 710.356 116.388C710.356 116.388 716.362 128.937 725.911 121.848C725.911 121.848 723.921 129.241 727.919 127.975C731.918 126.709 739.084 126.583 739.408 112.257L738.988 97.4212Z" fill="#FECCC4"/>
<path d="M734.274 105.797C734.274 105.797 740.44 84.9667 747.004 89.8722C753.569 94.7778 748.064 103.202 748.064 103.202L740.281 110.658L734.274 105.797Z" fill="#FECCC4"/>
<path d="M736.963 108.212C736.79 108.15 736.63 108.054 736.495 107.929C736.316 107.694 736.219 107.408 736.218 107.113C736.081 105.77 736.058 104.418 736.152 103.071C736.081 102.954 735.908 103.078 735.839 103.196L734.483 105.53C734.423 105.666 734.317 105.777 734.184 105.845C734.072 105.874 733.953 105.871 733.843 105.836C733.507 105.785 733.191 105.648 732.924 105.439C732.794 105.331 732.702 105.183 732.664 105.018C732.626 104.853 732.643 104.68 732.713 104.526C732.323 104.242 731.869 104.059 731.392 103.994C731.153 103.965 730.91 104.003 730.691 104.102C730.472 104.201 730.284 104.359 730.148 104.557C730.072 104.676 730.031 104.814 730.031 104.955C730.031 105.095 730.072 105.233 730.148 105.352C730.225 105.437 730.309 105.517 730.398 105.589C730.989 106.15 730.908 107.269 731.632 107.641C731.759 107.706 731.922 107.763 731.952 107.902C731.961 107.986 731.939 108.07 731.892 108.139C731.563 108.571 731.153 108.934 730.684 109.207C730.215 109.48 729.697 109.657 729.159 109.729L727.107 110.276C726.79 111.023 726.498 111.949 727 112.586C727.154 112.773 727.361 112.909 727.595 112.974C727.828 113.039 728.076 113.03 728.305 112.949C728.762 112.777 729.119 112.313 729.608 112.319C730.16 112.326 730.516 112.963 730.479 113.513C730.381 114.057 730.202 114.583 729.946 115.072C729.521 116.18 729.53 117.408 729.973 118.51C730.064 118.685 730.115 118.877 730.124 119.074C730.083 119.293 730.006 119.504 729.898 119.698C729.81 119.915 729.786 120.152 729.826 120.382C729.867 120.612 729.971 120.826 730.128 120.999C730.292 121.166 730.508 121.271 730.74 121.298C730.972 121.324 731.206 121.269 731.403 121.143C731.953 120.75 731.89 119.937 731.966 119.264C732.113 117.973 732.97 116.855 733.186 115.573C733.298 114.905 733.232 114.217 733.347 113.55C733.382 113.249 733.501 112.963 733.689 112.726C733.846 112.564 734.033 112.434 734.238 112.341C734.897 112.005 735.607 111.777 736.339 111.667C736.922 111.659 737.491 111.484 737.977 111.161C738.218 110.889 738.387 110.561 738.469 110.206C738.551 109.852 738.544 109.483 738.448 109.132C738.246 108.585 737.496 108.444 736.963 108.212Z" fill="#13514E"/>
<path d="M744.635 115.67C744.635 115.67 758.357 124.636 754.736 133.39" stroke="#13514E" stroke-miterlimit="10"/>
<path d="M804.33 152.278C804.33 152.278 797.704 160.53 799.221 163.031C800.738 165.531 810.946 161.96 810.946 161.96L804.33 152.278Z" fill="#13514E"/>
<path d="M806.4 143.132C806.4 143.132 816.39 126.39 823.688 132.706C830.987 139.021 826.56 143.979 826.56 143.979L817.501 152.06C817.501 152.06 831.643 145.086 835.033 162.098C835.033 162.098 829.027 174.647 819.477 167.559C819.477 167.559 821.467 174.952 817.469 173.686C813.47 172.42 806.305 172.294 805.98 157.967L806.4 143.132Z" fill="#FECCC4"/>
<path d="M811.114 151.507C811.114 151.507 804.949 130.677 798.385 135.583C791.82 140.488 797.324 148.913 797.324 148.913L805.108 156.368L811.114 151.507Z" fill="#FECCC4"/>
<path d="M808.426 153.923C808.599 153.861 808.758 153.764 808.894 153.64C809.073 153.405 809.17 153.118 809.17 152.824C809.308 151.481 809.33 150.128 809.237 148.781C809.307 148.664 809.481 148.789 809.55 148.907L810.907 151.24C810.967 151.377 811.072 151.488 811.205 151.555C811.317 151.584 811.436 151.581 811.546 151.547C811.882 151.496 812.198 151.359 812.465 151.149C812.595 151.041 812.686 150.894 812.725 150.729C812.763 150.564 812.746 150.391 812.676 150.237C813.065 149.953 813.519 149.77 813.997 149.705C814.236 149.676 814.478 149.713 814.698 149.813C814.917 149.912 815.105 150.07 815.241 150.268C815.317 150.387 815.358 150.524 815.358 150.665C815.358 150.806 815.317 150.944 815.241 151.062C815.164 151.148 815.08 151.228 814.991 151.3C814.4 151.861 814.481 152.979 813.757 153.352C813.629 153.417 813.467 153.474 813.437 153.613C813.428 153.697 813.449 153.781 813.497 153.85C813.826 154.282 814.236 154.645 814.705 154.918C815.174 155.19 815.692 155.368 816.23 155.44L818.282 155.987C818.599 156.734 818.891 157.659 818.389 158.297C818.235 158.484 818.028 158.619 817.794 158.684C817.561 158.749 817.313 158.741 817.084 158.66C816.626 158.488 816.27 158.024 815.781 158.03C815.229 158.037 814.872 158.673 814.909 159.224C815.007 159.768 815.187 160.293 815.443 160.783C815.868 161.891 815.859 163.119 815.416 164.22C815.325 164.395 815.274 164.588 815.265 164.785C815.306 165.004 815.383 165.214 815.491 165.409C815.579 165.625 815.604 165.862 815.563 166.093C815.522 166.323 815.417 166.537 815.261 166.71C815.097 166.877 814.881 166.982 814.649 167.008C814.417 167.035 814.183 166.98 813.987 166.854C813.436 166.46 813.5 165.648 813.423 164.975C813.276 163.683 812.419 162.566 812.203 161.284C812.091 160.616 812.157 159.928 812.043 159.261C812.007 158.96 811.888 158.674 811.7 158.437C811.542 158.275 811.356 158.144 811.151 158.051C810.491 157.715 809.782 157.488 809.05 157.378C808.467 157.37 807.898 157.195 807.412 156.872C807.171 156.6 807.002 156.271 806.92 155.917C806.838 155.563 806.845 155.194 806.941 154.843C807.143 154.296 807.893 154.155 808.426 153.923Z" fill="#13514E"/>
<path d="M800.755 161.381C800.755 161.381 738.394 180.181 742.014 188.935" stroke="#13514E" stroke-miterlimit="10"/>
<path d="M761.869 184.728C761.869 184.728 761.336 166.097 771.948 165.76C782.559 165.424 784.212 178.563 781.3 183.68C781.3 183.68 796.62 181.2 797.904 193.886C799.187 206.572 783.684 205.991 783.684 205.991C783.684 205.991 782.63 219.276 770.249 221.833C757.868 224.391 759.344 206.36 759.344 206.36C759.344 206.36 745.024 205.242 743.402 197.063C741.779 188.883 751.459 185.238 751.459 185.238L761.869 184.728Z" fill="#FECCC4"/>
<path d="M776.054 194.734C776.352 194.849 776.692 194.737 777.004 194.804C777.316 194.904 777.592 195.092 777.8 195.346C778.486 196.038 779.222 197.041 778.741 197.889C778.249 198.757 776.957 198.605 776.034 198.227C775.111 197.849 774.018 197.37 773.186 197.919L773.571 201.301C773.623 201.53 773.595 201.769 773.492 201.98C773.393 202.089 773.273 202.176 773.137 202.233C773.002 202.291 772.856 202.319 772.709 202.314C771.94 202.393 771.167 202.433 770.394 202.433C770.413 201.225 770.27 200.019 769.967 198.849C769.926 198.589 769.801 198.35 769.61 198.167C769.409 198.038 769.17 197.978 768.931 197.998C767.767 198.002 764.93 198.991 764.419 197.213C763.997 195.742 766.074 195.792 766.764 194.919C768.128 193.195 768.104 190.682 770.225 189.242C772.454 187.729 771.87 188.441 772.478 190.127C772.685 190.7 772.043 191.354 772.567 191.973C773.179 192.696 774.099 191.864 774.668 192.313C775.373 192.87 775.28 194.435 776.054 194.734Z" fill="#13514E"/>
<path opacity="0.1" d="M780.088 185.139C779.3 185.177 778.529 185.389 777.832 185.759C777.135 186.128 776.528 186.647 776.054 187.278C775.116 188.545 774.372 189.945 773.845 191.432" fill="#1A1A1A"/>
<path opacity="0.1" d="M767.803 199.631C767.015 199.669 766.245 199.881 765.547 200.251C764.85 200.62 764.243 201.139 763.769 201.77C762.831 203.038 762.086 204.437 761.56 205.924" fill="#1A1A1A"/>
<path opacity="0.1" d="M765.999 191.029C765.737 190.284 765.314 189.607 764.761 189.044C764.208 188.481 763.538 188.047 762.798 187.773C761.315 187.235 759.761 186.922 758.187 186.841" fill="#1A1A1A"/>
<path opacity="0.1" d="M781.326 206.576C781.186 205.799 780.878 205.063 780.421 204.419C779.965 203.775 779.372 203.239 778.685 202.85C777.308 202.083 775.824 201.525 774.282 201.195" fill="#1A1A1A"/>
<path d="M764.363 124.53C764.421 123.847 767.279 79.5046 767.279 79.5046" stroke="#13514E" stroke-width="2" stroke-miterlimit="10"/>
<path d="M797.75 98.9211C797.75 98.9211 794.251 108.909 796.515 110.761C798.778 112.614 807.213 105.846 807.213 105.846L797.75 98.9211Z" fill="#13514E"/>
<path d="M796.656 89.608C796.656 89.608 800.498 70.4944 809.483 74.018C818.469 77.5416 815.946 83.6913 815.946 83.6913L810.097 94.3282C810.097 94.3282 821.108 83.0408 829.971 97.9528C829.971 97.9528 828.489 111.786 817.123 108.283C817.123 108.283 821.462 114.591 817.271 114.729C813.079 114.867 806.281 117.136 801.202 103.736L796.656 89.608Z" fill="#FECCC4"/>
<path d="M803.891 95.9348C803.891 95.9348 791.139 78.3484 786.583 85.1605C782.028 91.9726 790.024 98.0822 790.024 98.0822L799.846 102.519L803.891 95.9348Z" fill="#FECCC4"/>
<path d="M802.16 99.1075C802.303 98.991 802.421 98.8471 802.507 98.6843C802.597 98.4037 802.593 98.1013 802.496 97.823C802.178 96.5109 801.749 95.2283 801.212 93.9894C801.24 93.8556 801.445 93.9148 801.549 94.0033L803.605 95.7519C803.707 95.8605 803.844 95.9304 803.991 95.9494C804.107 95.9395 804.218 95.8972 804.311 95.8275C804.61 95.6678 804.863 95.4334 805.044 95.1469C805.131 95.0018 805.168 94.8321 805.149 94.6639C805.13 94.4957 805.056 94.3385 804.939 94.2163C805.212 93.8184 805.579 93.4948 806.008 93.2745C806.223 93.1678 806.464 93.1221 806.704 93.1428C806.944 93.1634 807.174 93.2495 807.368 93.3916C807.48 93.4775 807.564 93.594 807.611 93.7268C807.658 93.8597 807.665 94.0032 807.632 94.1402C807.588 94.2466 807.536 94.3494 807.476 94.4475C807.106 95.173 807.555 96.2009 806.996 96.7932C806.897 96.8972 806.763 97.0044 806.781 97.1462C806.801 97.228 806.849 97.3002 806.917 97.3498C807.371 97.6475 807.878 97.8528 808.411 97.9537C808.944 98.0547 809.492 98.0493 810.023 97.938L812.141 97.7702C812.688 98.3685 813.272 99.1446 813.011 99.9125C812.928 100.14 812.777 100.337 812.579 100.476C812.38 100.615 812.144 100.69 811.901 100.69C811.412 100.68 810.922 100.361 810.462 100.53C810.222 100.665 810.043 100.888 809.964 101.152C809.885 101.417 809.912 101.701 810.039 101.946C810.312 102.426 810.657 102.862 811.061 103.238C811.831 104.141 812.232 105.302 812.181 106.488C812.154 106.684 812.169 106.882 812.226 107.071C812.338 107.264 812.481 107.437 812.648 107.584C812.802 107.759 812.904 107.974 812.943 108.205C812.981 108.435 812.954 108.672 812.864 108.888C812.765 109.099 812.597 109.27 812.387 109.372C812.176 109.474 811.938 109.501 811.71 109.448C811.06 109.26 810.849 108.473 810.553 107.864C809.984 106.695 808.804 105.927 808.173 104.79C807.845 104.198 807.678 103.527 807.348 102.936C807.214 102.664 807.007 102.434 806.75 102.273C806.548 102.173 806.329 102.112 806.105 102.092C805.371 101.995 804.626 102.017 803.899 102.157C803.346 102.344 802.752 102.368 802.186 102.226C801.868 102.049 801.599 101.796 801.404 101.49C801.208 101.183 801.092 100.833 801.066 100.47C801.074 99.8862 801.735 99.504 802.16 99.1075Z" fill="#13514E"/>
<path d="M797.411 108.695C797.411 108.695 744.875 147.195 751.205 154.243" stroke="#13514E" stroke-miterlimit="10"/>
<path d="M758.245 130.599C758.245 130.599 749.487 114.145 758.843 109.128C768.2 104.111 775.52 115.146 775.185 121.025C775.185 121.025 787.807 111.994 794.595 122.788C801.383 133.582 787.236 139.952 787.236 139.952C787.236 139.952 792.196 152.321 782.241 160.114C772.287 167.908 765.596 151.099 765.596 151.099C765.596 151.099 752.271 156.462 747.182 149.855C742.094 143.249 749.146 135.682 749.146 135.682L758.245 130.599Z" fill="#FECCC4"/>
<path d="M775.398 133.259C775.716 133.229 775.971 132.978 776.28 132.899C776.604 132.85 776.935 132.896 777.234 133.031C778.156 133.347 779.261 133.917 779.207 134.89C779.152 135.886 777.927 136.325 776.932 136.397C775.937 136.468 774.746 136.525 774.244 137.387L776.092 140.245C776.24 140.427 776.322 140.654 776.323 140.888C776.288 141.18 776.019 141.378 775.771 141.535C775.116 141.948 774.442 142.327 773.749 142.671C773.23 141.58 772.566 140.564 771.774 139.65C771.622 139.435 771.403 139.277 771.151 139.198C770.913 139.171 770.673 139.224 770.467 139.348C769.427 139.869 767.325 142.016 766.077 140.649C765.045 139.52 766.928 138.642 767.159 137.553C767.614 135.402 766.475 133.161 767.736 130.929C769.061 128.583 768.853 129.481 770.147 130.72C770.587 131.141 770.303 132.013 771.047 132.334C771.917 132.71 772.372 131.557 773.08 131.706C773.959 131.891 774.572 133.335 775.398 133.259Z" fill="#13514E"/>
<path opacity="0.1" d="M774.747 122.87C774.058 123.255 773.462 123.787 773.002 124.428C772.542 125.069 772.229 125.804 772.084 126.579C771.807 128.132 771.763 129.716 771.952 131.282" fill="#1A1A1A"/>
<path opacity="0.1" d="M770.182 141.313C769.493 141.698 768.897 142.229 768.437 142.87C767.977 143.511 767.663 144.246 767.519 145.022C767.242 146.574 767.197 148.159 767.387 149.724" fill="#1A1A1A"/>
<path opacity="0.1" d="M764.744 134.408C764.178 133.858 763.499 133.438 762.753 133.18C762.007 132.922 761.213 132.831 760.429 132.914C758.862 133.091 757.33 133.501 755.884 134.129" fill="#1A1A1A"/>
<path opacity="0.1" d="M785.383 141.524C784.913 140.89 784.309 140.368 783.614 139.994C782.919 139.62 782.15 139.404 781.362 139.36C779.787 139.285 778.21 139.445 776.682 139.834" fill="#1A1A1A"/>
<path d="M767.279 61.8149C767.279 61.8149 758.107 77.8538 767.279 82.3352C767.279 82.3352 779.806 73.8441 767.279 61.8149Z" fill="#13514E"/>
<path d="M790.95 58.2397C790.95 58.2397 774.712 67.0542 780.154 75.6907C780.154 75.6907 795.275 75.0603 790.95 58.2397Z" fill="#13514E"/>
<path d="M797.295 68.1204C797.295 68.1204 781.057 76.9348 786.499 85.5713C786.499 85.5712 801.62 84.9409 797.295 68.1204Z" fill="#13514E"/>
<path d="M781.033 73.5842L764.363 112.388" stroke="#13514E" stroke-width="2" stroke-miterlimit="10"/>
<path d="M789.187 82.3352C789.187 82.3352 768.72 95.5777 768.73 102.519" stroke="#13514E" stroke-width="2" stroke-miterlimit="10"/>
</g>
</svg>
