<svg width="247" height="486" viewBox="0 0 247 486" fill="none" xmlns="http://www.w3.org/2000/svg">
<path d="M18.5426 227.102C14.6814 229.111 10.5864 232.812 11.2225 240.02C12.4826 254.104 28.6713 259.843 31.377 274.116C32.0697 277.918 31.6832 281.762 30.2422 285.402C27.8685 291.438 23.8236 295.046 20.4898 299.693C16.2571 305.629 14.4705 312.392 15.3451 319.168C16.3278 326.642 19.6986 333.886 25.1786 340.3C29.843 345.642 34.9885 349.088 39.9794 353.107C46.2688 358.254 51.9386 363.793 56.921 369.659C59.4463 372.483 61.5698 375.488 63.2563 378.623C65.3229 382.588 66.658 387.141 67.9519 391.597L79.4905 431.231C81.0299 436.509 82.593 441.869 84.9319 446.67C87.6304 452.198 91.1833 456.657 94.6684 460.998C102.184 470.355 110.086 480.039 118.536 483.834C126.985 487.628 136.012 483.292 136.755 470.975C137.462 459.257 130.797 445.557 130.476 433.312C129.969 414.022 144.853 407.64 145.581 388.934C146.273 370.989 134.032 352.284 129.409 333.189C126.099 319.53 126.859 306.058 124.43 292.339C120.936 272.552 110.909 253.639 99.3807 240.674C87.8525 227.708 74.9897 220.063 62.4387 214.971C57.1239 212.814 51.6988 211.064 46.8265 211.993C41.6406 212.983 39.5954 218.837 35.3188 221.523C30.4183 224.646 23.7448 224.378 18.5426 227.102Z" fill="#13514E"/>
<path opacity="0.5" d="M42.8064 214.077C42.8064 214.077 115.406 379.468 127.316 484.821" stroke="#1A1A1A" stroke-width="2" stroke-miterlimit="10"/>
<path opacity="0.5" d="M11.3933 240.878C11.3933 240.878 62.7696 257.254 80.1775 308.809" stroke="#1A1A1A" stroke-width="2" stroke-miterlimit="10"/>
<path opacity="0.5" d="M16.0969 323.281C16.0969 323.281 83.8146 316.784 93.1132 346.117" stroke="#1A1A1A" stroke-width="2" stroke-miterlimit="10"/>
<path opacity="0.5" d="M99.3612 240.301C99.3612 240.301 82.1391 263.431 82.8993 316.404" stroke="#1A1A1A" stroke-width="2" stroke-miterlimit="10"/>
<path opacity="0.5" d="M145.362 389.309C145.362 389.309 133.051 403.941 101.355 371.795" stroke="#1A1A1A" stroke-width="2" stroke-miterlimit="10"/>
<path opacity="0.5" d="M80.63 429.136C80.63 429.136 114.389 416.685 109.451 399.263" stroke="#1A1A1A" stroke-width="2" stroke-miterlimit="10"/>
<path d="M115.152 437.618C115.152 437.618 82.4203 441.165 99.2928 388.97L109.262 387.703L114.138 376.301C114.138 376.301 121.233 360.085 126.047 361.606C130.861 363.126 137.372 364.9 138.424 358.565C139.209 354.946 140.896 351.584 143.33 348.793C145.765 346.002 148.866 343.872 152.345 342.603C159.493 340.322 195.472 317.538 203.326 298.779C211.181 280.019 218.529 275.079 218.529 275.079C218.529 275.079 228.917 275.375 222.329 316.97C222.329 316.97 220.049 331.201 216.755 334.241C213.461 337.282 185.336 366.42 185.336 366.42L171.148 400.118L165.827 416.841C165.827 416.841 179.002 429.763 160.886 442.939C142.77 456.114 119.354 448.513 119.354 448.513L115.152 437.618Z" fill="#FECCC4"/>
<path d="M116.667 430.524L145.484 379.849L172.16 349.444C172.16 349.444 202.058 314.731 205.859 307.637C205.859 307.637 215.994 288.629 216.247 283.944" stroke="#13514E" stroke-miterlimit="10"/>
<path d="M155.967 431.537C155.967 431.537 126.417 426.617 117.49 429.077" stroke="#13514E" stroke-miterlimit="10"/>
<path d="M103.744 410.76C103.744 410.76 117.17 418.615 116.668 420.895" stroke="#13514E" stroke-miterlimit="10"/>
<path d="M128.326 371.488C128.326 371.488 132.08 403.421 129.407 408.121" stroke="#13514E" stroke-miterlimit="10"/>
<path d="M160.885 398.345C160.885 398.345 127.791 410.963 126.657 412.956" stroke="#13514E" stroke-miterlimit="10"/>
<path d="M152.44 351.724C152.44 351.724 150.187 373.932 147.386 377.68" stroke="#13514E" stroke-miterlimit="10"/>
<path d="M169.881 371.488C169.881 371.488 147.253 376.738 145.484 379.849" stroke="#13514E" stroke-miterlimit="10"/>
<path d="M192.43 342.349L170.159 351.724C170.159 351.724 174.694 335.761 173.68 334.241" stroke="#13514E" stroke-miterlimit="10"/>
<path d="M213.208 319.695C213.208 319.695 187.382 328.414 188.006 330.694L190.911 319.695" stroke="#13514E" stroke-miterlimit="10"/>
<path d="M216.249 300.068L205.859 307.638L204.592 300.73" stroke="#13514E" stroke-miterlimit="10"/>
<path d="M127.82 223.77C127.82 223.77 149.863 102.91 157.845 93.4086L160.885 95.6889C160.885 95.6889 130.087 208.906 130.467 243.112C130.467 243.112 108.943 416.17 123.006 469.379C123.006 469.379 124.779 479.172 119.838 480.312C112.217 425.394 112.054 369.698 119.353 314.736" fill="#13514E"/>
<path d="M126.824 242.773C126.824 242.773 139.746 224.91 152.288 223.77" stroke="#13514E" stroke-miterlimit="10"/>
<path d="M159.129 215.789C159.129 215.789 149.11 221.162 149.559 224.271C150.008 227.38 161.6 228.141 161.6 228.141L159.129 215.789Z" fill="#13514E"/>
<path d="M165.021 207.617C165.021 207.617 181.933 195.265 186.494 204.576C191.055 213.888 184.594 216.929 184.594 216.929L172.242 221.109C172.242 221.109 189.155 220.159 185.354 238.402C185.354 238.402 174.142 248.284 167.681 237.262C167.681 237.262 166.541 245.407 163.12 242.475C159.7 239.542 152.669 236.406 158.37 222.107L165.021 207.617Z" fill="#FECCC4"/>
<path d="M166.16 217.879C166.16 217.879 168.821 194.695 160.269 196.785C151.718 198.876 153.618 209.517 153.618 209.517L158.179 220.159L166.16 217.879Z" fill="#FECCC4"/>
<path d="M162.487 219.136C162.684 219.148 162.882 219.119 163.069 219.053C163.344 218.896 163.56 218.654 163.685 218.362C164.386 217.093 164.976 215.765 165.45 214.395C165.569 214.308 165.688 214.504 165.706 214.65L166.066 217.527C166.068 217.687 166.126 217.841 166.229 217.964C166.328 218.04 166.446 218.087 166.57 218.099C166.923 218.189 167.294 218.187 167.645 218.092C167.819 218.04 167.972 217.933 168.079 217.786C168.186 217.639 168.242 217.461 168.238 217.279C168.742 217.161 169.268 217.171 169.767 217.308C170.016 217.38 170.239 217.519 170.414 217.709C170.589 217.9 170.709 218.134 170.76 218.388C170.786 218.537 170.768 218.69 170.709 218.83C170.649 218.969 170.551 219.088 170.426 219.173C170.314 219.225 170.198 219.269 170.079 219.303C169.26 219.609 168.869 220.749 167.996 220.812C167.843 220.823 167.659 220.811 167.571 220.937C167.527 221.015 167.512 221.107 167.53 221.196C167.674 221.761 167.927 222.292 168.276 222.759C168.625 223.226 169.063 223.619 169.564 223.916L171.363 225.32C171.362 226.191 171.261 227.229 170.497 227.648C170.267 227.768 170.004 227.815 169.746 227.781C169.488 227.747 169.247 227.635 169.055 227.459C168.675 227.096 168.517 226.487 168.031 226.288C167.482 226.063 166.863 226.542 166.668 227.102C166.536 227.681 166.493 228.276 166.539 228.867C166.494 230.142 165.969 231.352 165.069 232.255C164.905 232.389 164.773 232.558 164.682 232.749C164.631 232.983 164.618 233.223 164.643 233.461C164.639 233.712 164.563 233.956 164.426 234.167C164.29 234.377 164.096 234.545 163.868 234.65C163.637 234.746 163.379 234.76 163.139 234.688C162.898 234.616 162.69 234.464 162.548 234.257C162.169 233.636 162.574 232.86 162.781 232.163C163.178 230.824 162.801 229.359 163.126 228.001C163.296 227.294 163.651 226.641 163.818 225.933C163.909 225.621 163.912 225.289 163.826 224.974C163.738 224.749 163.609 224.542 163.445 224.363C162.934 223.754 162.329 223.231 161.651 222.814C161.078 222.562 160.589 222.149 160.244 221.626C160.121 221.255 160.091 220.859 160.159 220.475C160.227 220.09 160.389 219.728 160.632 219.422C161.062 218.965 161.862 219.142 162.487 219.136Z" fill="#13514E"/>
<path d="M106.243 239.835C106.243 239.835 113.361 248.7 111.731 251.386C110.102 254.072 99.1365 250.236 99.1365 250.236L106.243 239.835Z" fill="#13514E"/>
<path d="M104.019 230.011C104.019 230.011 93.2881 212.026 85.4475 218.811C77.6069 225.595 82.3631 230.921 82.3631 230.921L92.0945 239.602C92.0945 239.602 76.9021 232.109 73.2615 250.385C73.2615 250.385 79.7128 263.866 89.9715 256.251C89.9715 256.251 87.8333 264.193 92.1286 262.833C96.4238 261.473 104.121 261.338 104.47 245.948L104.019 230.011Z" fill="#FECCC4"/>
<path d="M98.9539 239.008C98.9539 239.008 105.577 216.632 112.629 221.902C119.68 227.171 113.768 236.221 113.768 236.221L105.407 244.23L98.9539 239.008Z" fill="#FECCC4"/>
<path d="M101.843 241.603C101.657 241.536 101.485 241.432 101.34 241.298C101.148 241.046 101.044 240.739 101.043 240.422C100.895 238.979 100.871 237.527 100.971 236.08C100.896 235.954 100.709 236.087 100.635 236.214L99.1783 238.721C99.1139 238.868 99.0004 238.987 98.8576 239.059C98.7369 239.091 98.6099 239.088 98.4909 239.05C98.1306 238.995 97.7907 238.848 97.5042 238.623C97.3641 238.507 97.2658 238.349 97.2248 238.172C97.1838 237.995 97.2025 237.809 97.2774 237.643C96.8592 237.338 96.3712 237.141 95.858 237.072C95.6013 237.041 95.3409 237.081 95.1054 237.187C94.8699 237.294 94.6684 237.463 94.5224 237.677C94.4401 237.804 94.3963 237.952 94.3963 238.103C94.3963 238.255 94.4401 238.403 94.5224 238.53C94.6048 238.622 94.6945 238.707 94.7905 238.785C95.4251 239.388 95.3382 240.589 96.1164 240.989C96.2529 241.059 96.4273 241.12 96.4595 241.27C96.4691 241.36 96.4462 241.45 96.395 241.525C96.0422 241.989 95.6016 242.378 95.0978 242.671C94.594 242.964 94.0373 243.155 93.4596 243.232L91.255 243.82C90.9144 244.622 90.6009 245.617 91.1402 246.301C91.3053 246.502 91.5285 246.648 91.7794 246.718C92.0302 246.788 92.2963 246.778 92.5417 246.691C93.0334 246.506 93.4166 246.008 93.9419 246.015C94.5348 246.022 94.9176 246.706 94.8779 247.298C94.7726 247.881 94.5796 248.446 94.3053 248.972C93.848 250.163 93.8581 251.482 94.3336 252.665C94.4313 252.853 94.4867 253.06 94.4963 253.271C94.4518 253.506 94.3697 253.733 94.2532 253.941C94.1592 254.174 94.1326 254.429 94.1763 254.676C94.2201 254.923 94.3322 255.153 94.5003 255.339C94.6761 255.518 94.9083 255.631 95.1576 255.66C95.4069 255.688 95.6583 255.629 95.8696 255.494C96.4613 255.071 96.3928 254.198 96.4751 253.476C96.633 252.088 97.5534 250.888 97.7854 249.51C97.9062 248.793 97.8352 248.054 97.9579 247.337C97.9964 247.013 98.1237 246.707 98.326 246.451C98.4948 246.278 98.6948 246.138 98.9152 246.038C99.6239 245.677 100.386 245.433 101.173 245.314C101.799 245.306 102.41 245.117 102.932 244.771C103.191 244.478 103.373 244.126 103.461 243.745C103.549 243.365 103.541 242.968 103.438 242.591C103.221 242.003 102.416 241.852 101.843 241.603Z" fill="#13514E"/>
<path d="M120.037 330.694C120.037 330.694 126.295 308.163 135.455 298.779" stroke="#13514E" stroke-miterlimit="10"/>
<path d="M139.982 279.259C139.982 279.259 140.489 259.242 151.891 259.496C163.293 259.749 164.306 273.938 160.886 279.259C160.886 279.259 177.463 277.485 178.106 291.167C178.749 304.85 162.151 303.329 162.151 303.329C162.151 303.329 160.252 317.518 146.823 319.545C133.394 321.572 136.022 302.316 136.022 302.316C136.022 302.316 120.726 300.289 119.459 291.421C118.192 282.553 128.786 279.203 128.786 279.203L139.982 279.259Z" fill="#FECCC4"/>
<path d="M154.618 290.813C154.931 290.953 155.302 290.853 155.633 290.942C155.962 291.068 156.248 291.286 156.456 291.57C157.151 292.353 157.883 293.47 157.318 294.352C156.74 295.255 155.362 295.017 154.394 294.558C153.426 294.099 152.282 293.522 151.357 294.063L151.574 297.713C151.617 297.961 151.573 298.217 151.45 298.437C151.338 298.548 151.204 298.634 151.056 298.688C150.908 298.742 150.749 298.763 150.592 298.75C149.762 298.79 148.931 298.788 148.101 298.744C148.192 297.449 148.108 296.147 147.851 294.875C147.822 294.593 147.701 294.329 147.508 294.123C147.299 293.972 147.046 293.894 146.789 293.901C145.54 293.839 142.439 294.735 141.994 292.798C141.626 291.196 143.852 291.37 144.643 290.474C146.206 288.703 146.325 286.006 148.683 284.584C151.163 283.091 150.494 283.82 151.049 285.663C151.238 286.29 150.511 286.955 151.038 287.649C151.653 288.46 152.687 287.621 153.271 288.136C153.995 288.773 153.805 290.447 154.618 290.813Z" fill="#13514E"/>
<path opacity="0.1" d="M159.501 280.754C158.653 280.75 157.815 280.932 157.045 281.288C156.276 281.645 155.595 282.166 155.05 282.815C153.97 284.12 153.091 285.579 152.44 287.143" fill="#1A1A1A"/>
<path opacity="0.1" d="M145.483 295.588C144.636 295.584 143.797 295.767 143.028 296.123C142.259 296.479 141.577 297 141.032 297.65C139.953 298.955 139.073 300.413 138.423 301.977" fill="#1A1A1A"/>
<path opacity="0.1" d="M144.047 286.257C143.809 285.443 143.396 284.692 142.835 284.056C142.274 283.42 141.58 282.916 140.802 282.579C139.243 281.917 137.594 281.49 135.91 281.313" fill="#1A1A1A"/>
<path opacity="0.1" d="M159.588 303.82C159.484 302.979 159.195 302.171 158.743 301.454C158.29 300.737 157.686 300.128 156.972 299.671C155.538 298.769 153.979 298.085 152.344 297.641" fill="#1A1A1A"/>
<path d="M115.521 179.473C115.521 179.473 106.949 161.378 117.24 156.463C127.531 151.549 134.834 163.757 134.179 170.048C134.179 170.048 148.176 160.991 154.919 172.914C161.662 184.836 146.162 190.963 146.162 190.963C146.162 190.963 150.864 204.484 139.792 212.348C128.719 220.212 122.382 201.839 122.382 201.839C122.382 201.839 107.815 206.926 102.686 199.582C97.5565 192.238 105.503 184.471 105.503 184.471L115.521 179.473Z" fill="#FECCC4"/>
<path d="M133.795 183.187C134.137 183.171 134.423 182.914 134.759 182.845C135.109 182.809 135.462 182.874 135.775 183.034C136.749 183.419 137.907 184.087 137.8 185.129C137.691 186.195 136.354 186.604 135.283 186.631C134.212 186.657 132.931 186.659 132.349 187.559L134.189 190.718C134.339 190.921 134.415 191.169 134.404 191.42C134.353 191.732 134.054 191.931 133.779 192.087C133.057 192.497 132.314 192.87 131.553 193.204C131.051 192.007 130.389 190.884 129.585 189.864C129.433 189.625 129.206 189.444 128.94 189.347C128.685 189.307 128.425 189.351 128.198 189.474C127.055 189.981 124.692 192.179 123.421 190.65C122.371 189.386 124.435 188.539 124.737 187.382C125.334 185.096 124.224 182.635 125.689 180.303C127.228 177.852 126.96 178.805 128.287 180.2C128.738 180.674 128.389 181.595 129.172 181.977C130.087 182.424 130.632 181.209 131.385 181.404C132.319 181.647 132.904 183.227 133.795 183.187Z" fill="#13514E"/>
<path opacity="0.1" d="M133.617 172.007C132.859 172.385 132.192 172.926 131.666 173.591C131.14 174.256 130.767 175.028 130.573 175.854C130.199 177.505 130.071 179.204 130.196 180.893" fill="#1A1A1A"/>
<path opacity="0.1" d="M127.795 191.568C127.036 191.946 126.37 192.487 125.844 193.152C125.318 193.817 124.945 194.589 124.751 195.415C124.376 197.066 124.249 198.765 124.374 200.454" fill="#1A1A1A"/>
<path opacity="0.1" d="M122.304 183.886C121.725 183.267 121.017 182.783 120.23 182.468C119.442 182.154 118.596 182.017 117.749 182.066C116.059 182.178 114.395 182.541 112.812 183.142" fill="#1A1A1A"/>
<path opacity="0.1" d="M144.096 192.557C143.623 191.853 143.001 191.262 142.274 190.826C141.547 190.39 140.733 190.119 139.889 190.033C138.203 189.874 136.503 189.966 134.844 190.307" fill="#1A1A1A"/>
<path d="M110.084 249.614C110.084 249.614 128.24 266.814 124.351 276.218" stroke="#13514E" stroke-miterlimit="10"/>
<path d="M100.982 293.816C100.982 293.816 108.099 302.681 106.47 305.367C104.84 308.053 93.875 304.217 93.875 304.217L100.982 293.816Z" fill="#13514E"/>
<path d="M98.7578 283.992C98.7578 283.992 88.0266 266.007 80.186 272.791C72.3454 279.576 77.1016 284.902 77.1016 284.902L86.833 293.583C86.833 293.583 71.6407 286.09 68 304.366C68 304.366 74.4514 317.847 84.71 310.232C84.71 310.232 82.5719 318.174 86.8671 316.814C91.1623 315.453 98.86 315.319 99.2089 299.929L98.7578 283.992Z" fill="#FECCC4"/>
<path d="M93.6938 292.989C93.6938 292.989 100.317 270.612 107.369 275.882C114.42 281.152 108.508 290.202 108.508 290.202L100.147 298.21L93.6938 292.989Z" fill="#FECCC4"/>
<path d="M96.5823 295.583C96.396 295.517 96.2247 295.413 96.079 295.279C95.8871 295.027 95.7829 294.719 95.7822 294.403C95.6344 292.96 95.6104 291.507 95.7105 290.06C95.6349 289.935 95.4483 290.068 95.3746 290.195L93.9175 292.702C93.8531 292.848 93.7397 292.968 93.5968 293.04C93.4761 293.071 93.3491 293.068 93.2301 293.031C92.8699 292.976 92.53 292.829 92.2434 292.604C92.1034 292.488 92.0051 292.329 91.9641 292.152C91.9231 291.975 91.9414 291.79 92.0163 291.624C91.5981 291.318 91.1105 291.122 90.5973 291.052C90.3405 291.021 90.0802 291.061 89.8447 291.168C89.6091 291.275 89.4076 291.444 89.2616 291.658C89.1793 291.785 89.1355 291.933 89.1355 292.084C89.1355 292.235 89.1793 292.384 89.2616 292.511C89.344 292.603 89.4338 292.688 89.5298 292.766C90.1643 293.368 90.0774 294.57 90.8556 294.97C90.9922 295.04 91.1666 295.101 91.1988 295.251C91.2084 295.341 91.1854 295.431 91.1343 295.506C90.7815 295.969 90.3408 296.359 89.837 296.652C89.3333 296.945 88.7765 297.136 88.1988 297.213L85.9943 297.801C85.6537 298.603 85.3402 299.598 85.8794 300.282C86.0446 300.483 86.2678 300.629 86.5186 300.698C86.7694 300.768 87.0356 300.759 87.281 300.672C87.7727 300.487 88.1562 299.989 88.6815 299.996C89.2744 300.003 89.6568 300.687 89.6171 301.278C89.5118 301.862 89.3189 302.427 89.0446 302.953C88.5873 304.143 88.5974 305.463 89.0728 306.646C89.1705 306.834 89.2259 307.04 89.2355 307.252C89.191 307.487 89.109 307.713 88.9924 307.922C88.8984 308.155 88.8719 308.41 88.9156 308.657C88.9593 308.904 89.0714 309.134 89.2395 309.32C89.4153 309.499 89.6475 309.612 89.8968 309.64C90.1461 309.668 90.3972 309.61 90.6085 309.475C91.2003 309.052 91.132 308.179 91.2144 307.456C91.3722 306.069 92.2926 304.868 92.5246 303.491C92.6454 302.774 92.5744 302.034 92.6971 301.318C92.7356 300.994 92.8629 300.688 93.0653 300.432C93.2341 300.259 93.434 300.119 93.6545 300.019C94.3631 299.658 95.1251 299.413 95.9116 299.295C96.5382 299.287 97.1493 299.098 97.6715 298.752C97.93 298.459 98.1119 298.106 98.2002 297.726C98.2885 297.345 98.2805 296.949 98.1774 296.572C97.9601 295.984 97.1549 295.833 96.5823 295.583Z" fill="#13514E"/>
<path d="M104.823 303.595C104.823 303.595 122.979 320.795 119.09 330.199" stroke="#13514E" stroke-miterlimit="10"/>
<path d="M135.954 101.967C135.954 101.967 143.072 110.832 141.442 113.518C139.812 116.204 128.847 112.367 128.847 112.367L135.954 101.967Z" fill="#13514E"/>
<path d="M133.73 92.1421C133.73 92.1421 122.999 74.1572 115.158 80.9417C107.317 87.7263 112.074 93.0524 112.074 93.0524L121.805 101.733C121.805 101.733 106.612 94.2407 102.972 112.516C102.972 112.516 109.423 125.997 119.682 118.382C119.682 118.382 117.544 126.324 121.839 124.964C126.134 123.604 133.832 123.469 134.181 108.079L133.73 92.1421Z" fill="#FECCC4"/>
<path d="M128.666 101.139C128.666 101.139 135.289 78.763 142.34 84.0327C149.392 89.3025 143.479 98.3523 143.479 98.3523L135.118 106.361L128.666 101.139Z" fill="#FECCC4"/>
<path d="M131.554 103.734C131.368 103.667 131.197 103.564 131.051 103.43C130.859 103.178 130.755 102.87 130.755 102.553C130.607 101.111 130.583 99.6578 130.683 98.211C130.607 98.0852 130.421 98.2187 130.347 98.3456L128.89 100.853C128.826 100.999 128.712 101.118 128.569 101.191C128.449 101.222 128.322 101.219 128.203 101.181C127.842 101.127 127.502 100.98 127.216 100.755C127.076 100.639 126.977 100.48 126.936 100.303C126.895 100.126 126.914 99.9402 126.989 99.7746C126.571 99.469 126.083 99.2726 125.57 99.2029C125.313 99.172 125.053 99.212 124.817 99.3187C124.582 99.4254 124.38 99.5948 124.234 99.8083C124.152 99.9353 124.108 100.083 124.108 100.235C124.108 100.386 124.152 100.534 124.234 100.661C124.316 100.753 124.406 100.839 124.502 100.917C125.137 101.519 125.05 102.721 125.828 103.121C125.965 103.191 126.139 103.251 126.171 103.401C126.181 103.491 126.158 103.582 126.107 103.656C125.754 104.12 125.313 104.51 124.809 104.803C124.306 105.096 123.749 105.286 123.171 105.364L120.967 105.951C120.626 106.753 120.313 107.748 120.852 108.432C121.017 108.634 121.24 108.779 121.491 108.849C121.742 108.919 122.008 108.91 122.253 108.823C122.745 108.638 123.129 108.14 123.654 108.146C124.247 108.154 124.629 108.837 124.59 109.429C124.484 110.013 124.291 110.578 124.017 111.104C123.56 112.294 123.57 113.613 124.045 114.796C124.143 114.984 124.198 115.191 124.208 115.403C124.163 115.638 124.081 115.864 123.965 116.073C123.871 116.305 123.844 116.56 123.888 116.807C123.932 117.054 124.044 117.284 124.212 117.471C124.388 117.65 124.62 117.763 124.869 117.791C125.119 117.819 125.37 117.761 125.581 117.625C126.173 117.202 126.104 116.33 126.187 115.607C126.345 114.219 127.265 113.019 127.497 111.642C127.618 110.924 127.547 110.185 127.67 109.468C127.708 109.145 127.835 108.838 128.038 108.583C128.207 108.409 128.406 108.269 128.627 108.169C129.336 107.808 130.098 107.564 130.884 107.446C131.511 107.437 132.122 107.249 132.644 106.902C132.902 106.61 133.084 106.257 133.173 105.877C133.261 105.496 133.253 105.1 133.15 104.723C132.932 104.135 132.127 103.984 131.554 103.734Z" fill="#13514E"/>
<path d="M139.795 111.745C139.795 111.745 154.536 121.377 150.647 130.781" stroke="#13514E" stroke-miterlimit="10"/>
<path d="M146.05 51.9153C146.05 51.9153 153.168 60.7798 151.538 63.4659C149.908 66.152 138.943 62.3158 138.943 62.3158L146.05 51.9153Z" fill="#13514E"/>
<path d="M143.826 42.09C143.826 42.09 133.095 24.1051 125.254 30.8897C117.414 37.6742 122.17 43.0003 122.17 43.0003L131.901 51.6809C131.901 51.6809 116.709 44.1887 113.068 62.4643C113.068 62.4643 119.52 75.945 129.778 68.3301C129.778 68.3301 127.64 76.2721 131.935 74.912C136.231 73.5518 143.928 73.4172 144.277 58.027L143.826 42.09Z" fill="#FECCC4"/>
<path d="M138.762 51.0873C138.762 51.0873 145.385 28.7109 152.437 33.9807C159.489 39.2504 153.576 48.3002 153.576 48.3002L145.215 56.309L138.762 51.0873Z" fill="#FECCC4"/>
<path d="M141.651 53.682C141.464 53.6151 141.293 53.5116 141.147 53.3776C140.955 53.1256 140.851 52.8178 140.851 52.5011C140.703 51.0584 140.679 49.6058 140.779 48.159C140.703 48.0331 140.517 48.1665 140.443 48.2934L138.986 50.8004C138.921 50.9468 138.808 51.0665 138.665 51.1386C138.544 51.1699 138.417 51.1666 138.298 51.1292C137.938 51.0746 137.598 50.9277 137.312 50.7025C137.172 50.5867 137.073 50.428 137.032 50.2509C136.991 50.0738 137.01 49.888 137.085 49.7224C136.666 49.4168 136.179 49.2204 135.666 49.1508C135.409 49.1198 135.149 49.16 134.913 49.2667C134.677 49.3734 134.476 49.5426 134.33 49.7561C134.248 49.8831 134.204 50.0312 134.204 50.1826C134.204 50.3339 134.248 50.482 134.33 50.609C134.412 50.7012 134.502 50.7864 134.598 50.8643C135.233 51.4667 135.146 52.6685 135.924 53.0684C136.061 53.1385 136.235 53.1992 136.267 53.3494C136.277 53.4392 136.254 53.5294 136.203 53.6039C135.85 54.0678 135.409 54.4576 134.905 54.7506C134.402 55.0436 133.845 55.2342 133.267 55.3115L131.063 55.8992C130.722 56.7012 130.409 57.6959 130.948 58.3803C131.113 58.5815 131.336 58.7272 131.587 58.797C131.838 58.8668 132.104 58.8576 132.349 58.7707C132.841 58.5855 133.225 58.0874 133.75 58.094C134.343 58.1015 134.725 58.7851 134.685 59.3768C134.58 59.9607 134.387 60.5254 134.113 61.0516C133.656 62.2418 133.666 63.5609 134.141 64.744C134.239 64.9319 134.294 65.139 134.304 65.3505C134.259 65.5855 134.177 65.8117 134.061 66.0205C133.967 66.2533 133.94 66.5079 133.984 66.755C134.028 67.0022 134.14 67.2321 134.308 67.4185C134.484 67.5975 134.716 67.7107 134.965 67.7388C135.214 67.767 135.466 67.7085 135.677 67.5732C136.269 67.1503 136.2 66.2775 136.283 65.5547C136.441 64.167 137.361 62.9668 137.593 61.5895C137.714 60.8723 137.643 60.133 137.765 59.4161C137.804 59.0925 137.931 58.786 138.134 58.5307C138.302 58.3572 138.502 58.2169 138.723 58.1169C139.431 57.7559 140.194 57.5117 140.98 57.3934C141.607 57.3852 142.218 57.1967 142.74 56.8502C142.998 56.5574 143.18 56.2049 143.269 55.8244C143.357 55.4439 143.349 55.0474 143.246 54.6707C143.028 54.0823 142.223 53.9313 141.651 53.682Z" fill="#13514E"/>
<path d="M149.891 61.6934C149.891 61.6934 164.632 71.3251 160.743 80.7294" stroke="#13514E" stroke-miterlimit="10"/>
<path d="M214.019 101.019C214.019 101.019 206.901 109.884 208.53 112.57C210.16 115.256 221.125 111.42 221.125 111.42L214.019 101.019Z" fill="#13514E"/>
<path d="M216.242 91.1942C216.242 91.1942 226.973 73.2093 234.814 79.9938C242.654 86.7783 237.898 92.1046 237.898 92.1046L228.167 100.785C228.167 100.785 243.359 93.2928 247 111.568C247 111.568 240.549 125.049 230.29 117.434C230.29 117.434 232.428 125.376 228.133 124.016C223.837 122.656 216.14 122.521 215.791 107.131L216.242 91.1942Z" fill="#FECCC4"/>
<path d="M221.306 100.191C221.306 100.191 214.683 77.8151 207.631 83.0849C200.58 88.3546 206.493 97.4042 206.493 97.4042L214.854 105.413L221.306 100.191Z" fill="#FECCC4"/>
<path d="M218.418 102.786C218.605 102.719 218.776 102.616 218.921 102.482C219.113 102.23 219.217 101.922 219.218 101.605C219.366 100.163 219.39 98.7098 219.29 97.2631C219.365 97.1372 219.552 97.2708 219.626 97.3977L221.083 99.9046C221.148 100.051 221.261 100.171 221.403 100.243C221.524 100.274 221.652 100.271 221.771 100.233C222.131 100.179 222.471 100.032 222.757 99.8068C222.897 99.6909 222.995 99.5322 223.036 99.3551C223.077 99.178 223.059 98.9923 222.984 98.8266C223.402 98.5211 223.89 98.3247 224.403 98.255C224.66 98.2241 224.92 98.2642 225.156 98.371C225.391 98.4777 225.593 98.6469 225.739 98.8603C225.821 98.9873 225.865 99.1355 225.865 99.2868C225.865 99.4382 225.821 99.5863 225.739 99.7133C225.657 99.8054 225.567 99.8909 225.471 99.9688C224.836 100.571 224.923 101.773 224.145 102.173C224.008 102.243 223.834 102.303 223.802 102.454C223.792 102.543 223.815 102.634 223.866 102.708C224.219 103.172 224.66 103.562 225.164 103.855C225.667 104.148 226.224 104.338 226.802 104.416L229.006 105.004C229.347 105.805 229.66 106.8 229.121 107.485C228.956 107.686 228.733 107.831 228.482 107.901C228.231 107.971 227.965 107.962 227.719 107.875C227.228 107.69 226.845 107.192 226.319 107.198C225.726 107.206 225.343 107.889 225.383 108.481C225.489 109.065 225.682 109.63 225.956 110.156C226.413 111.346 226.403 112.665 225.928 113.848C225.83 114.036 225.774 114.243 225.765 114.455C225.809 114.69 225.892 114.916 226.008 115.125C226.102 115.358 226.129 115.612 226.085 115.859C226.041 116.106 225.929 116.336 225.761 116.523C225.585 116.702 225.353 116.815 225.104 116.843C224.855 116.871 224.603 116.813 224.392 116.677C223.8 116.255 223.869 115.382 223.786 114.659C223.628 113.271 222.708 112.071 222.476 110.694C222.355 109.977 222.426 109.237 222.304 108.52C222.265 108.197 222.137 107.89 221.935 107.635C221.766 107.461 221.566 107.321 221.346 107.221C220.637 106.86 219.875 106.616 219.089 106.498C218.462 106.489 217.851 106.301 217.329 105.955C217.07 105.662 216.889 105.309 216.801 104.929C216.712 104.548 216.72 104.152 216.823 103.775C217.04 103.187 217.846 103.036 218.418 102.786Z" fill="#13514E"/>
<path d="M210.177 110.798C210.177 110.798 143.187 130.994 147.077 140.398" stroke="#13514E" stroke-miterlimit="10"/>
<path d="M168.405 135.878C168.405 135.878 167.833 115.864 179.232 115.502C190.631 115.141 192.408 129.255 189.279 134.752C189.279 134.752 205.736 132.088 207.115 145.716C208.494 159.344 191.839 158.72 191.839 158.72C191.839 158.72 190.707 172.99 177.407 175.738C164.107 178.486 165.693 159.115 165.693 159.115C165.693 159.115 150.31 157.915 148.567 149.128C146.824 140.341 157.223 136.426 157.223 136.426L168.405 135.878Z" fill="#FECCC4"/>
<path d="M183.644 146.627C183.963 146.751 184.329 146.631 184.664 146.702C184.999 146.81 185.296 147.012 185.519 147.284C186.255 148.028 187.047 149.105 186.53 150.016C186.002 150.948 184.613 150.786 183.621 150.379C182.63 149.973 181.457 149.459 180.562 150.049L180.976 153.682C181.032 153.927 181.002 154.185 180.891 154.411C180.785 154.528 180.655 154.621 180.51 154.683C180.365 154.745 180.208 154.775 180.05 154.77C179.224 154.854 178.394 154.897 177.563 154.898C177.584 153.6 177.43 152.305 177.105 151.048C177.06 150.768 176.926 150.511 176.721 150.315C176.505 150.176 176.248 150.112 175.991 150.133C174.741 150.138 171.693 151.2 171.145 149.29C170.691 147.71 172.922 147.764 173.664 146.826C175.129 144.973 175.103 142.274 177.381 140.728C179.777 139.102 179.148 139.867 179.802 141.678C180.024 142.293 179.334 142.996 179.898 143.661C180.555 144.438 181.543 143.544 182.154 144.026C182.911 144.624 182.812 146.306 183.644 146.627Z" fill="#13514E"/>
<path opacity="0.1" d="M187.976 136.32C187.13 136.361 186.302 136.588 185.553 136.986C184.804 137.383 184.152 137.94 183.643 138.618C182.635 139.979 181.836 141.483 181.271 143.08" fill="#1A1A1A"/>
<path opacity="0.1" d="M174.78 151.888C173.933 151.929 173.106 152.156 172.357 152.553C171.608 152.951 170.955 153.508 170.446 154.186C169.439 155.547 168.639 157.051 168.074 158.647" fill="#1A1A1A"/>
<path opacity="0.1" d="M172.842 142.647C172.56 141.847 172.106 141.119 171.512 140.514C170.918 139.91 170.198 139.444 169.403 139.149C167.81 138.572 166.141 138.235 164.449 138.148" fill="#1A1A1A"/>
<path opacity="0.1" d="M189.307 159.348C189.157 158.513 188.825 157.722 188.335 157.031C187.845 156.339 187.208 155.764 186.47 155.346C184.99 154.522 183.396 153.923 181.74 153.567" fill="#1A1A1A"/>
<path d="M171.084 71.2114C171.147 70.478 174.216 22.8436 174.216 22.8436" stroke="#13514E" stroke-width="2" stroke-miterlimit="10"/>
<path d="M206.95 43.7014C206.95 43.7014 203.192 54.4309 205.623 56.4206C208.054 58.4104 217.115 51.1406 217.115 51.1406L206.95 43.7014Z" fill="#13514E"/>
<path d="M205.774 33.6969C205.774 33.6969 209.901 13.1644 219.554 16.9496C229.207 20.7348 226.497 27.341 226.497 27.341L220.213 38.7675C220.213 38.7675 232.042 26.6423 241.563 42.6612C241.563 42.6612 239.97 57.5212 227.761 53.7587C227.761 53.7587 232.422 60.5347 227.919 60.6831C223.416 60.8315 216.114 63.2687 210.658 48.8738L205.774 33.6969Z" fill="#FECCC4"/>
<path d="M213.547 40.4934C213.547 40.4934 199.848 21.6014 194.954 28.9192C190.061 36.237 198.651 42.8001 198.651 42.8001L209.202 47.5662L213.547 40.4934Z" fill="#FECCC4"/>
<path d="M211.687 43.9016C211.84 43.7765 211.967 43.6219 212.06 43.447C212.157 43.1455 212.153 42.8207 212.048 42.5218C211.707 41.1123 211.246 39.7344 210.669 38.4036C210.699 38.2598 210.919 38.3235 211.03 38.4185L213.24 40.2969C213.349 40.4136 213.496 40.4886 213.655 40.5091C213.779 40.4984 213.898 40.453 213.997 40.3781C214.319 40.2066 214.59 39.9547 214.786 39.647C214.879 39.4911 214.919 39.3088 214.898 39.1281C214.878 38.9475 214.799 38.7785 214.673 38.6473C214.965 38.2199 215.36 37.8722 215.82 37.6356C216.052 37.5209 216.311 37.4719 216.569 37.4941C216.826 37.5163 217.073 37.6088 217.282 37.7613C217.402 37.8537 217.492 37.9788 217.543 38.1215C217.593 38.2642 217.601 38.4184 217.566 38.5656C217.519 38.6799 217.463 38.7903 217.398 38.8957C217 39.675 217.482 40.7792 216.882 41.4155C216.776 41.5272 216.632 41.6424 216.652 41.7947C216.673 41.8826 216.724 41.9602 216.797 42.0134C217.285 42.3333 217.83 42.5537 218.403 42.6622C218.975 42.7706 219.564 42.7649 220.134 42.6453L222.409 42.4651C222.997 43.1077 223.624 43.9414 223.343 44.7664C223.255 45.0112 223.093 45.2226 222.879 45.372C222.666 45.5215 222.412 45.6014 222.152 45.6012C221.626 45.5904 221.099 45.2484 220.606 45.4297C220.348 45.5745 220.155 45.8143 220.071 46.0982C219.986 46.3821 220.014 46.6878 220.151 46.9508C220.445 47.4664 220.815 47.9344 221.249 48.3392C222.077 49.3091 222.506 50.5564 222.452 51.8303C222.423 52.0401 222.439 52.2537 222.501 52.4564C222.621 52.6632 222.774 52.8492 222.953 53.0072C223.12 53.1954 223.229 53.4265 223.27 53.6741C223.312 53.9218 223.282 54.176 223.186 54.4077C223.08 54.6351 222.899 54.8188 222.673 54.9284C222.447 55.038 222.191 55.0667 221.946 55.0096C221.248 54.8079 221.021 53.9622 220.703 53.3082C220.092 52.0523 218.825 51.2272 218.147 50.0058C217.794 49.3698 217.615 48.6492 217.26 48.0142C217.116 47.7219 216.894 47.4753 216.618 47.302C216.401 47.1947 216.166 47.129 215.925 47.1081C215.136 47.0038 214.336 47.0273 213.555 47.1778C212.962 47.3788 212.323 47.4045 211.715 47.2518C211.374 47.0618 211.085 46.7899 210.875 46.4606C210.665 46.1312 210.54 45.7547 210.512 45.3652C210.521 44.7381 211.23 44.3275 211.687 43.9016Z" fill="#13514E"/>
<path d="M206.586 54.2007C206.586 54.2007 150.15 95.559 156.95 103.13" stroke="#13514E" stroke-miterlimit="10"/>
<path d="M164.512 77.7307C164.512 77.7307 155.104 60.0553 165.155 54.6659C175.206 49.2764 183.07 61.1303 182.71 67.4456C182.71 67.4456 196.269 57.7451 203.56 69.3403C210.852 80.9355 195.655 87.7782 195.655 87.7782C195.655 87.7782 200.983 101.065 190.29 109.437C179.596 117.809 172.408 99.7522 172.408 99.7522C172.408 99.7522 158.095 105.514 152.628 98.4166C147.162 91.3195 154.738 83.1912 154.738 83.1912L164.512 77.7307Z" fill="#FECCC4"/>
<path d="M182.939 80.5879C183.281 80.5565 183.554 80.2866 183.886 80.2016C184.234 80.149 184.59 80.198 184.911 80.3429C185.901 80.6824 187.089 81.2953 187.031 82.3409C186.972 83.4108 185.656 83.8823 184.587 83.9588C183.518 84.0354 182.238 84.0964 181.699 85.0225L183.684 88.0931C183.844 88.2883 183.931 88.5322 183.932 88.7841C183.895 89.0973 183.606 89.3106 183.339 89.4788C182.636 89.922 181.911 90.3293 181.167 90.6992C180.609 89.527 179.896 88.4355 179.046 87.4541C178.882 87.2233 178.647 87.0526 178.377 86.9684C178.121 86.9397 177.863 86.9962 177.642 87.1291C176.524 87.6891 174.266 89.995 172.926 88.5274C171.817 87.3138 173.84 86.3708 174.088 85.2012C174.577 82.8903 173.354 80.4834 174.708 78.0858C176.131 75.5654 175.908 76.5295 177.298 77.861C177.771 78.3136 177.465 79.2496 178.265 79.5952C179.2 79.9989 179.688 78.7596 180.449 78.9199C181.393 79.1189 182.051 80.6695 182.939 80.5879Z" fill="#13514E"/>
<path opacity="0.1" d="M182.24 69.4286C181.5 69.842 180.859 70.4132 180.365 71.1018C179.871 71.7905 179.534 72.5796 179.379 73.4131C179.082 75.0805 179.033 76.783 179.237 78.4645" fill="#1A1A1A"/>
<path opacity="0.1" d="M177.335 89.24C176.595 89.6533 175.955 90.2245 175.461 90.9132C174.966 91.6018 174.63 92.391 174.474 93.2244C174.177 94.8919 174.129 96.5943 174.332 98.2759" fill="#1A1A1A"/>
<path opacity="0.1" d="M171.493 81.8228C170.886 81.2312 170.156 80.7807 169.355 80.5033C168.554 80.2258 167.701 80.1283 166.858 80.2175C165.175 80.4082 163.53 80.8479 161.976 81.5224" fill="#1A1A1A"/>
<path opacity="0.1" d="M193.665 89.4671C193.16 88.7862 192.511 88.2248 191.765 87.8231C191.018 87.4213 190.192 87.1889 189.346 87.1424C187.654 87.062 185.96 87.2335 184.318 87.6513" fill="#1A1A1A"/>
<path d="M174.217 3.84058C174.217 3.84058 164.364 21.07 174.217 25.8842C174.217 25.8842 187.674 16.7627 174.217 3.84058Z" fill="#13514E"/>
<path d="M199.645 0C199.645 0 182.201 9.46884 188.048 18.7464C188.048 18.7464 204.291 18.0693 199.645 0Z" fill="#13514E"/>
<path d="M206.461 10.6141C206.461 10.6141 189.017 20.0829 194.864 29.3605C194.864 29.3604 211.107 28.6833 206.461 10.6141Z" fill="#13514E"/>
<path d="M188.992 16.4835L171.084 58.1675" stroke="#13514E" stroke-width="2" stroke-miterlimit="10"/>
<path d="M197.751 25.8841C197.751 25.8841 175.764 40.1097 175.776 47.566" stroke="#13514E" stroke-width="2" stroke-miterlimit="10"/>
</svg>
