<svg width="36" height="35" viewBox="0 0 36 35" fill="none" xmlns="http://www.w3.org/2000/svg">
<g clip-path="url(#clip0)">
<path d="M21.524 17.3352C21.524 19.1677 20.0241 20.6532 18.1738 20.6532C16.3234 20.6532 14.8235 19.1677 14.8235 17.3352C14.8235 15.5026 16.3234 14.0171 18.1738 14.0171C20.0241 14.0171 21.524 15.5026 21.524 17.3352Z" fill="#1A1A1A"/>
<path d="M26.0092 11.4647C25.8482 11.0325 25.5912 10.6413 25.2574 10.3202C24.9332 9.98951 24.5384 9.73505 24.1017 9.57554C23.7476 9.43932 23.2156 9.27717 22.2356 9.233C21.1756 9.18512 20.8577 9.1748 18.1741 9.1748C15.4902 9.1748 15.1724 9.18486 14.1126 9.23273C13.1327 9.27717 12.6004 9.43932 12.2465 9.57554C11.8098 9.73505 11.4148 9.98951 11.0908 10.3202C10.757 10.6413 10.5 11.0322 10.3387 11.4647C10.2012 11.8155 10.0374 12.3426 9.99284 13.3131C9.9445 14.3627 9.93408 14.6775 9.93408 17.3356C9.93408 19.9934 9.9445 20.3082 9.99284 21.3581C10.0374 22.3286 10.2012 22.8555 10.3387 23.2062C10.5 23.6387 10.7567 24.0297 11.0905 24.3508C11.4148 24.6814 11.8095 24.9359 12.2462 25.0954C12.6004 25.2319 13.1327 25.394 14.1126 25.4382C15.1724 25.4861 15.4899 25.4961 18.1738 25.4961C20.858 25.4961 21.1758 25.4861 22.2354 25.4382C23.2153 25.394 23.7476 25.2319 24.1017 25.0954C24.9783 24.7605 25.6711 24.0744 26.0092 23.2062C26.1468 22.8555 26.3105 22.3286 26.3554 21.3581C26.4037 20.3082 26.4139 19.9934 26.4139 17.3356C26.4139 14.6775 26.4037 14.3627 26.3554 13.3131C26.3108 12.3426 26.147 11.8155 26.0092 11.4647ZM18.1741 22.4468C15.3235 22.4468 13.0127 20.1585 13.0127 17.3353C13.0127 14.5122 15.3235 12.2239 18.1741 12.2239C21.0244 12.2239 23.3352 14.5122 23.3352 17.3353C23.3352 20.1585 21.0244 22.4468 18.1741 22.4468ZM23.5393 13.2163C22.8732 13.2163 22.3331 12.6815 22.3331 12.0218C22.3331 11.3621 22.8732 10.8272 23.5393 10.8272C24.2054 10.8272 24.7454 11.3621 24.7454 12.0218C24.7451 12.6815 24.2054 13.2163 23.5393 13.2163Z" fill="#1A1A1A"/>
<path d="M18.1739 0C8.50848 0 0.67041 7.7627 0.67041 17.3352C0.67041 26.9077 8.50848 34.6704 18.1739 34.6704C27.8394 34.6704 35.6774 26.9077 35.6774 17.3352C35.6774 7.7627 27.8394 0 18.1739 0ZM28.1641 21.4391C28.1155 22.4988 27.9454 23.2222 27.697 23.8555C27.1749 25.1926 26.1076 26.2496 24.7575 26.7667C24.1184 27.0127 23.3876 27.181 22.318 27.2294C21.2462 27.2778 20.9038 27.2894 18.1742 27.2894C15.4443 27.2894 15.1022 27.2778 14.0301 27.2294C12.9605 27.181 12.2297 27.0127 11.5906 26.7667C10.9197 26.5168 10.3123 26.125 9.81024 25.6185C9.29904 25.1214 8.90349 24.5197 8.6511 23.8555C8.40271 23.2225 8.23258 22.4988 8.18397 21.4394C8.13456 20.3776 8.12308 20.0385 8.12308 17.3352C8.12308 14.6319 8.13456 14.2928 8.1837 13.2313C8.23231 12.1716 8.40218 11.4482 8.65056 10.8149C8.90296 10.1507 9.29877 9.54896 9.81024 9.05194C10.3121 8.5454 10.9197 8.15365 11.5903 7.90368C12.2297 7.65769 12.9602 7.48946 14.0301 7.44105C15.1019 7.39264 15.4443 7.381 18.1739 7.381C20.9035 7.381 21.2459 7.39264 22.3177 7.44131C23.3876 7.48946 24.1181 7.65769 24.7575 7.90342C25.4281 8.15339 26.0358 8.5454 26.5379 9.05194C27.0491 9.54923 27.4449 10.1507 27.697 10.8149C27.9457 11.4482 28.1155 12.1716 28.1644 13.2313C28.2133 14.2928 28.2248 14.6319 28.2248 17.3352C28.2248 20.0385 28.2133 20.3776 28.1641 21.4391Z" fill="#1A1A1A"/>
</g>
<defs>
<clipPath id="clip0">
<rect width="35.007" height="34.6704" fill="white" transform="translate(0.67041)"/>
</clipPath>
</defs>
</svg>
