<svg width="161" height="325" viewBox="0 0 161 325" fill="none" xmlns="http://www.w3.org/2000/svg">
<path d="M51.3779 293.792C51.3779 293.792 61.511 294.916 65.5951 303.038C65.5951 303.038 60.4497 305.107 52.4271 298.183L51.3779 293.792Z" fill="#13514E"/>
<path d="M50.3767 293.369C50.3767 293.369 42.2114 299.004 43.087 307.918C43.087 307.918 48.6673 307.342 51.854 297.655L50.3767 293.369Z" fill="#13514E"/>
<path d="M48.0065 279.893C48.0065 279.893 53.724 274.132 66.7478 287.832C66.7478 287.832 63.4443 291.853 56.6642 289.639C49.8841 287.424 48.8624 283.968 48.0065 279.893Z" fill="#13514E"/>
<path d="M47.1337 279.134C47.1337 279.134 39.2891 276.091 33.7828 293.505C33.7828 293.505 38.6345 295.892 43.7676 291.289C48.9008 286.687 48.235 283.159 47.1337 279.134Z" fill="#13514E"/>
<path d="M46.1941 263.811C46.1941 263.811 53.9529 253.028 68.1506 265.982C68.1506 265.982 61.4358 275.984 46.7876 268.346L46.1941 263.811Z" fill="#13514E"/>
<path d="M45.9391 244.515C45.9391 244.515 57.755 234.686 69.9253 250.014C69.9253 250.014 61.5534 259.97 46.0768 249.193L45.9391 244.515Z" fill="#13514E"/>
<path d="M48.6966 226.954C48.6966 226.954 61.6752 218.497 73.7488 233.667C73.7488 233.667 61.6542 240.902 47.9342 229.8L48.6966 226.954Z" fill="#13514E"/>
<path d="M51.5812 209.958C51.5812 209.958 64.8221 201.041 76.2799 215.913C76.2799 215.913 62.1056 223.122 50.8518 212.68L51.5812 209.958Z" fill="#13514E"/>
<path d="M56.4348 195.479C56.4348 195.479 71.09 183.36 81.8712 197.123C81.8712 197.123 67.0008 206.929 55.6723 198.324L56.4348 195.479Z" fill="#13514E"/>
<path d="M63.5092 178.942C63.5092 178.942 78.7804 167.121 88.8407 182.017C88.8407 182.017 72.0231 191.301 62.7799 181.664L63.5092 178.942Z" fill="#13514E"/>
<path d="M71.3941 164.579C71.3941 164.579 88.5 154.211 98.6905 162.909C98.6905 162.909 80.7882 173.992 69.8352 168.14L71.3941 164.579Z" fill="#13514E"/>
<path d="M79.9691 151.262C79.9691 151.262 99.9907 138.327 107.422 146.418C107.422 146.418 92.5087 156.611 77.9954 154.181L79.9691 151.262Z" fill="#13514E"/>
<path d="M91.2424 136.168C91.2424 136.168 108.486 125.833 117.423 131.94C117.423 131.94 101.992 143.32 88.2626 140.04L91.2424 136.168Z" fill="#13514E"/>
<path d="M101.584 121.994C101.584 121.994 120.092 112.632 125.953 116.722C125.953 116.722 111.201 128.682 100.14 124.79L101.584 121.994Z" fill="#13514E"/>
<path d="M111.468 108.995C111.468 108.995 128.595 96.4781 135.273 99.5935C135.273 99.5935 123.672 111.735 111.037 110.603L111.468 108.995Z" fill="#13514E"/>
<path d="M123.22 91.0511C123.22 91.0511 137.857 81.8572 143.984 83.5309C143.984 83.5309 130.642 97.4667 121.684 94.9157L123.22 91.0511Z" fill="#13514E"/>
<path d="M130.572 78.9737L148.37 56.4258C148.37 56.4258 142.746 79.6121 127.908 83.3272L130.572 78.9737Z" fill="#13514E"/>
<path d="M142.556 52.0597C142.556 52.0597 150.075 31.2664 149.371 29.2212C149.371 29.2212 152.475 49.0154 139.961 61.4426L142.556 52.0597Z" fill="#13514E"/>
<path d="M45.8471 263.412C45.8471 263.412 36.2696 253.643 24.499 268.118C24.499 268.118 32.9057 277.235 46.0582 267.97L45.8471 263.412Z" fill="#13514E"/>
<path d="M45.7589 243.734C45.7589 243.734 33.4307 233.928 22.0609 249.28C22.0609 249.28 30.9519 259.219 45.8653 248.412L45.7589 243.734Z" fill="#13514E"/>
<path d="M47.7742 227.801C47.7742 227.801 40.7629 213.988 22.722 221.089C22.722 221.089 29.5789 233.402 47.0117 230.647L47.7742 227.801Z" fill="#13514E"/>
<path d="M51.2406 209.867C51.2406 209.867 44.2321 195.524 26.8734 202.675C26.8734 202.675 35.5446 216.005 50.5113 212.589L51.2406 209.867Z" fill="#13514E"/>
<path d="M56.3214 195.902C56.3214 195.902 53.7122 177.23 36.3434 180.306C36.3434 180.306 40.6872 197.407 54.948 198.516L56.3214 195.902Z" fill="#13514E"/>
<path d="M64.4257 179.097C64.4257 179.097 61.9396 160.147 44.1483 163.859C44.1483 163.859 49.5447 182.063 63.0081 181.543L64.4257 179.097Z" fill="#13514E"/>
<path d="M72.8745 165.07C72.8745 165.07 75.0886 145.616 62.5947 140.474C62.5947 140.474 60.0614 160.934 70.2432 167.976L72.8745 165.07Z" fill="#13514E"/>
<path d="M80.2915 151.383C80.2915 151.383 85.2398 128.571 74.7212 124.899C74.7212 124.899 70.5006 142.099 78.2283 154.243L80.2915 151.383Z" fill="#13514E"/>
<path d="M92.5292 135.822C92.5292 135.822 94.3481 116.227 84.7271 111.193C84.7271 111.193 81.1353 129.681 90.2926 140.14L92.5292 135.822Z" fill="#13514E"/>
<path d="M102.763 122.455C102.763 122.455 107.885 102.908 102.396 98.3627C102.396 98.3627 93.7811 114.992 100.282 124.463L102.763 122.455Z" fill="#13514E"/>
<path d="M112.003 108.906C112.003 108.906 116.512 88.5695 110.791 84.0014C110.791 84.0014 104.31 99.3154 110.68 109.961L112.003 108.906Z" fill="#13514E"/>
<path d="M123.697 92.8941C123.697 92.8941 128.035 76.5447 124.439 71.4632C124.439 71.4632 115.041 88.1392 120.4 95.5351L123.697 92.8941Z" fill="#13514E"/>
<path d="M130.242 78.0231L133.035 49.6057C133.035 49.6057 120.945 70.2623 129.141 82.988L130.242 78.0231Z" fill="#13514E"/>
<path d="M138.368 51.215C138.368 51.215 131.715 29.8279 132.502 27.8452C132.502 27.8452 128.591 47.3456 140.573 60.7989L138.368 51.215Z" fill="#13514E"/>
<path d="M141.169 46.1754C141.169 46.1754 137.227 17.2721 132.858 13.8471C132.858 13.8471 146.411 25.5676 142.276 45.6765L141.169 46.1754Z" fill="#13514E"/>
<path d="M121.585 95.0533L120.898 94.6362C137.763 68.5021 144.951 50.8614 141.137 44.9637L141.817 44.5686C145.86 50.8202 138.863 68.2775 121.585 95.0533Z" fill="#13514E"/>
<path d="M78.31 155.209L77.3083 154.542C78.9852 152.182 80.7514 149.806 82.558 147.479C98.2755 127.237 112.139 108.204 121.749 93.3126L122.831 93.1103C113.204 108.029 99.2684 127.917 83.5311 148.185C81.7343 150.498 79.9776 152.862 78.31 155.209Z" fill="#13514E"/>
<path d="M59.3416 318.868C59.2345 318.669 48.6088 298.668 45.5363 268.552C43.729 250.921 44.8409 233.194 48.8305 216.03C53.8168 194.574 64.8601 172.082 78.6596 152.664L79.2703 153.87C48.2966 197.454 44.3337 240.854 47.1293 268.37C50.1604 298.206 60.6602 317.99 60.766 318.186L59.3416 318.868Z" fill="#13514E"/>
</svg>
