<svg width="213" height="219" viewBox="0 0 213 219" fill="none" xmlns="http://www.w3.org/2000/svg">
<circle opacity="0.5" cx="106.5" cy="112.5" r="106.5" fill="#13514E"/>
<path d="M166.035 20.3829C166.035 20.3829 165.463 0.368094 176.862 0.00680846C188.261 -0.354477 190.037 13.7596 186.908 19.2569C186.908 19.2569 203.366 16.5928 204.745 30.2205C206.124 43.8482 189.469 43.2243 189.469 43.2243C189.469 43.2243 188.337 57.495 175.037 60.2425C161.737 62.99 163.323 43.62 163.323 43.62C163.323 43.62 147.94 42.42 146.197 33.633C144.454 24.846 154.852 20.931 154.852 20.931L166.035 20.3829Z" fill="#FECCC4"/>
<path d="M181.273 31.1318C181.593 31.2555 181.958 31.1351 182.294 31.2067C182.629 31.3141 182.925 31.5161 183.148 31.7884C183.885 32.5328 184.676 33.6096 184.16 34.5206C183.631 35.4527 182.243 35.2901 181.251 34.8837C180.26 34.4773 179.086 33.9631 178.192 34.5532L178.605 38.1862C178.661 38.4318 178.631 38.6892 178.52 38.9154C178.415 39.0328 178.285 39.1256 178.14 39.1875C177.995 39.2495 177.838 39.2791 177.68 39.2741C176.854 39.3589 176.023 39.4016 175.193 39.4022C175.214 38.1042 175.059 36.8092 174.734 35.5524C174.69 35.2728 174.555 35.0154 174.351 34.8199C174.134 34.6805 173.878 34.6164 173.621 34.6374C172.371 34.6423 169.323 35.7045 168.774 33.7941C168.32 32.2142 170.552 32.2682 171.294 31.3306C172.759 29.478 172.733 26.7782 175.011 25.2322C177.406 23.6068 176.778 24.3713 177.432 26.1821C177.654 26.7975 176.964 27.5 177.527 28.1652C178.185 28.9422 179.173 28.0488 179.784 28.5309C180.541 29.1287 180.442 30.8106 181.273 31.1318Z" fill="#13514E"/>
<path opacity="0.1" d="M185.606 20.824C184.759 20.8653 183.932 21.0926 183.183 21.4898C182.434 21.887 181.782 22.4441 181.272 23.1218C180.265 24.4834 179.466 25.9872 178.9 27.5839" fill="#1A1A1A"/>
<path opacity="0.1" d="M172.41 36.3918C171.563 36.4332 170.736 36.6605 169.987 37.0577C169.238 37.4548 168.585 38.0121 168.076 38.6899C167.068 40.0515 166.269 41.5551 165.704 43.1518" fill="#1A1A1A"/>
<path opacity="0.1" d="M170.471 27.1513C170.19 26.3515 169.736 25.6234 169.142 25.0188C168.547 24.4143 167.827 23.9481 167.032 23.6533C165.44 23.0762 163.771 22.7391 162.079 22.6528" fill="#1A1A1A"/>
<path opacity="0.1" d="M186.936 43.8522C186.787 43.0178 186.455 42.2267 185.965 41.535C185.474 40.8433 184.838 40.2681 184.1 39.8502C182.62 39.0263 181.026 38.4269 179.37 38.0718" fill="#1A1A1A"/>
</svg>
