<svg width="70" height="91" viewBox="0 0 70 91" fill="none" xmlns="http://www.w3.org/2000/svg">
<circle cx="35" cy="32" r="31.5" fill="white" stroke="#1A1A1A"/>
<circle cx="35" cy="32" r="27.5" stroke="#1A1A1A"/>
<g clip-path="url(#clip0)">
<path d="M47.8926 18.2848L47.8927 18.2848C48.3987 18.1193 48.8823 18.6006 48.7165 19.1087C48.7165 19.1087 48.7165 19.1087 48.7165 19.1088L40.1577 45.3017C39.983 45.8361 39.2551 45.9139 38.972 45.4272C38.972 45.4272 38.972 45.4272 38.972 45.4272L33.2162 35.5286C33.0849 35.3028 33.1007 35.0205 33.2564 34.8107L35.3228 32.0282L34.9731 31.6784L32.1905 33.7449L32.1905 33.7449C31.9808 33.9006 31.6986 33.9165 31.4727 33.7851L31.4727 33.7851L21.5741 28.0292L21.5741 28.0292C21.0877 27.7464 21.1649 27.0184 21.6996 26.8437L47.8926 18.2848ZM34.6601 35.1117L34.5619 35.244L34.6447 35.3864L39.088 43.0279L39.3685 43.5102L39.5418 42.9798L46.9218 20.3947L47.0748 19.9264L46.6065 20.0794L24.0214 27.4594L23.491 27.6327L23.9734 27.9131L31.6147 32.3565L31.7572 32.4393L31.8895 32.3411L39.1041 26.9831C39.3641 26.79 39.7265 26.8167 39.9554 27.0457L39.9555 27.0457C40.1845 27.2747 40.2111 27.637 40.018 27.8971L34.6601 35.1117ZM30.3065 37.6184L30.3065 37.6184L24.3093 43.6156C24.3093 43.6156 24.3093 43.6156 24.3093 43.6156C24.0542 43.8706 23.6406 43.8707 23.3856 43.6156L23.3856 43.6156C23.1305 43.3605 23.1305 42.9469 23.3856 42.6918L23.3856 42.6918L29.3827 36.6947C29.3827 36.6947 29.3828 36.6947 29.3828 36.6947C29.638 36.4396 30.0516 36.4396 30.3065 36.6946L30.3065 36.6947C30.5617 36.9498 30.5617 37.3634 30.3065 37.6184ZM22.7373 36.9216L22.7373 36.9216L25.1037 34.5551L25.1037 34.5551C25.3588 34.3 25.7724 34.3 26.0274 34.5551L26.0275 34.5552C26.2826 34.8103 26.2826 35.2238 26.0275 35.4789L26.0275 35.4789L23.6611 37.8454C23.406 38.1004 22.9924 38.1004 22.7373 37.8454C22.4822 37.5902 22.4822 37.1767 22.7373 36.9216ZM32.4461 40.9737L32.4461 40.9737C32.7012 41.2288 32.7012 41.6424 32.4461 41.8974L32.4461 41.8974L30.0796 44.2639L30.0796 44.2639C29.952 44.3915 29.7853 44.4552 29.6178 44.4552C29.0402 44.4552 28.7448 43.7512 29.1559 43.3401L28.9791 43.1633L29.1559 43.3401L31.5224 40.9737L31.5224 40.9737C31.7774 40.7186 32.191 40.7186 32.4461 40.9737Z" fill="#1A1A1A" stroke="white" stroke-width="0.5"/>
</g>
<path d="M2.48342 73.4H8.71142C8.96342 73.4 9.17342 73.484 9.34142 73.652C9.52142 73.82 9.61142 74.03 9.61142 74.282C9.61142 74.534 9.52142 74.738 9.34142 74.894C9.17342 75.05 8.96342 75.128 8.71142 75.128H3.27542L3.45542 74.822V78.854L3.29342 78.674H7.90142C8.15342 78.674 8.36342 78.758 8.53142 78.926C8.71142 79.094 8.80142 79.31 8.80142 79.574C8.80142 79.826 8.71142 80.03 8.53142 80.186C8.36342 80.342 8.15342 80.42 7.90142 80.42H3.32942L3.45542 80.258V84.416L3.32942 84.272H8.71142C8.96342 84.272 9.17342 84.362 9.34142 84.542C9.52142 84.71 9.61142 84.908 9.61142 85.136C9.61142 85.388 9.52142 85.598 9.34142 85.766C9.17342 85.922 8.96342 86 8.71142 86H2.48342C2.23142 86 2.01542 85.916 1.83542 85.748C1.65542 85.568 1.56542 85.346 1.56542 85.082V74.318C1.56542 74.054 1.65542 73.838 1.83542 73.67C2.01542 73.49 2.23142 73.4 2.48342 73.4ZM16.5286 76.316C17.3806 76.316 18.0406 76.496 18.5086 76.856C18.9766 77.204 19.3006 77.678 19.4806 78.278C19.6726 78.866 19.7686 79.526 19.7686 80.258V85.082C19.7686 85.346 19.6786 85.568 19.4986 85.748C19.3306 85.916 19.1206 86 18.8686 86C18.6046 86 18.3886 85.916 18.2206 85.748C18.0526 85.568 17.9686 85.346 17.9686 85.082V80.276C17.9686 79.844 17.9086 79.46 17.7886 79.124C17.6686 78.776 17.4586 78.5 17.1586 78.296C16.8706 78.08 16.4626 77.972 15.9346 77.972C15.4426 77.972 15.0106 78.08 14.6386 78.296C14.2666 78.5 13.9726 78.776 13.7566 79.124C13.5526 79.46 13.4506 79.844 13.4506 80.276V85.082C13.4506 85.346 13.3606 85.568 13.1806 85.748C13.0126 85.916 12.8026 86 12.5506 86C12.2866 86 12.0706 85.916 11.9026 85.748C11.7346 85.568 11.6506 85.346 11.6506 85.082V77.45C11.6506 77.186 11.7346 76.97 11.9026 76.802C12.0706 76.622 12.2866 76.532 12.5506 76.532C12.8026 76.532 13.0126 76.622 13.1806 76.802C13.3606 76.97 13.4506 77.186 13.4506 77.45V78.458L13.1266 78.638C13.2106 78.374 13.3546 78.11 13.5586 77.846C13.7746 77.57 14.0326 77.318 14.3326 77.09C14.6326 76.85 14.9686 76.664 15.3406 76.532C15.7126 76.388 16.1086 76.316 16.5286 76.316ZM22.3959 76.442C22.5759 76.442 22.7439 76.49 22.8999 76.586C23.0679 76.682 23.1879 76.826 23.2599 77.018L26.0859 83.552L25.7439 83.714L28.6059 77.036C28.7739 76.64 29.0439 76.448 29.4159 76.46C29.6559 76.46 29.8539 76.538 30.0099 76.694C30.1779 76.838 30.2619 77.03 30.2619 77.27C30.2619 77.342 30.2499 77.42 30.2259 77.504C30.2019 77.576 30.1719 77.648 30.1359 77.72L26.7159 85.424C26.5599 85.784 26.3019 85.976 25.9419 86C25.7619 86.024 25.5819 85.988 25.4019 85.892C25.2339 85.784 25.1019 85.628 25.0059 85.424L21.6039 77.72C21.5799 77.672 21.5559 77.612 21.5319 77.54C21.5079 77.456 21.4959 77.36 21.4959 77.252C21.4959 77.072 21.5739 76.892 21.7299 76.712C21.8979 76.532 22.1199 76.442 22.3959 76.442ZM41.0061 81.266C41.0061 82.226 40.7901 83.078 40.3581 83.822C39.9381 84.554 39.3681 85.13 38.6481 85.55C37.9281 85.97 37.1181 86.18 36.2181 86.18C35.3301 86.18 34.5201 85.97 33.7881 85.55C33.0681 85.13 32.4921 84.554 32.0601 83.822C31.6401 83.078 31.4301 82.226 31.4301 81.266C31.4301 80.294 31.6401 79.442 32.0601 78.71C32.4921 77.966 33.0681 77.384 33.7881 76.964C34.5201 76.532 35.3301 76.316 36.2181 76.316C37.1181 76.316 37.9281 76.532 38.6481 76.964C39.3681 77.384 39.9381 77.966 40.3581 78.71C40.7901 79.442 41.0061 80.294 41.0061 81.266ZM39.2061 81.266C39.2061 80.606 39.0741 80.036 38.8101 79.556C38.5461 79.064 38.1861 78.68 37.7301 78.404C37.2861 78.116 36.7821 77.972 36.2181 77.972C35.6661 77.972 35.1621 78.116 34.7061 78.404C34.2621 78.68 33.9021 79.064 33.6261 79.556C33.3621 80.036 33.2301 80.606 33.2301 81.266C33.2301 81.902 33.3621 82.466 33.6261 82.958C33.9021 83.45 34.2621 83.834 34.7061 84.11C35.1621 84.386 35.6661 84.524 36.2181 84.524C36.7821 84.524 37.2861 84.386 37.7301 84.11C38.1861 83.834 38.5461 83.45 38.8101 82.958C39.0741 82.466 39.2061 81.902 39.2061 81.266ZM49.9953 76.46C50.2593 76.46 50.4753 76.55 50.6433 76.73C50.8113 76.898 50.8953 77.114 50.8953 77.378V85.118C50.8953 86.174 50.6913 87.032 50.2833 87.692C49.8873 88.352 49.3473 88.832 48.6633 89.132C47.9913 89.444 47.2293 89.6 46.3773 89.6C45.9453 89.6 45.5133 89.558 45.0813 89.474C44.6493 89.402 44.2953 89.294 44.0193 89.15C43.7313 89.018 43.5273 88.856 43.4073 88.664C43.2873 88.472 43.2693 88.262 43.3533 88.034C43.4373 87.746 43.5813 87.548 43.7853 87.44C43.9893 87.344 44.1993 87.338 44.4153 87.422C44.6193 87.506 44.8893 87.614 45.2253 87.746C45.5613 87.878 45.9453 87.944 46.3773 87.944C46.9653 87.944 47.4633 87.848 47.8713 87.656C48.2793 87.464 48.5853 87.164 48.7893 86.756C49.0053 86.348 49.1133 85.82 49.1133 85.172V83.93L49.4013 84.362C49.2093 84.758 48.9573 85.088 48.6453 85.352C48.3333 85.616 47.9613 85.82 47.5293 85.964C47.1093 86.108 46.6413 86.18 46.1253 86.18C45.4653 86.18 44.8953 86.036 44.4153 85.748C43.9473 85.448 43.5873 85.04 43.3353 84.524C43.0833 83.996 42.9573 83.396 42.9573 82.724V77.378C42.9573 77.114 43.0413 76.898 43.2093 76.73C43.3773 76.55 43.5933 76.46 43.8573 76.46C44.1093 76.46 44.3193 76.55 44.4873 76.73C44.6673 76.898 44.7573 77.114 44.7573 77.378V82.238C44.7573 83.03 44.9313 83.612 45.2793 83.984C45.6273 84.344 46.1433 84.524 46.8273 84.524C47.2833 84.524 47.6793 84.428 48.0153 84.236C48.3513 84.044 48.6153 83.78 48.8073 83.444C48.9993 83.096 49.0953 82.694 49.0953 82.238V77.378C49.0953 77.114 49.1793 76.898 49.3473 76.73C49.5273 76.55 49.7433 76.46 49.9953 76.46ZM57.6484 86.18C56.6644 86.18 55.8004 85.976 55.0564 85.568C54.3244 85.148 53.7544 84.578 53.3464 83.858C52.9504 83.126 52.7524 82.292 52.7524 81.356C52.7524 80.3 52.9624 79.4 53.3824 78.656C53.8144 77.9 54.3724 77.324 55.0564 76.928C55.7524 76.52 56.4844 76.316 57.2524 76.316C57.8284 76.316 58.3804 76.436 58.9084 76.676C59.4484 76.904 59.9224 77.228 60.3304 77.648C60.7384 78.056 61.0624 78.542 61.3024 79.106C61.5424 79.658 61.6684 80.264 61.6804 80.924C61.6684 81.164 61.5724 81.362 61.3924 81.518C61.2124 81.674 61.0024 81.752 60.7624 81.752H53.7784L53.3464 80.222H60.1144L59.7724 80.546V80.096C59.7364 79.676 59.5924 79.31 59.3404 78.998C59.0884 78.674 58.7764 78.428 58.4044 78.26C58.0444 78.08 57.6604 77.99 57.2524 77.99C56.8924 77.99 56.5444 78.05 56.2084 78.17C55.8724 78.278 55.5784 78.458 55.3264 78.71C55.0744 78.962 54.8704 79.298 54.7144 79.718C54.5584 80.126 54.4804 80.636 54.4804 81.248C54.4804 81.908 54.6184 82.484 54.8944 82.976C55.1704 83.468 55.5424 83.852 56.0104 84.128C56.4784 84.392 57.0004 84.524 57.5764 84.524C58.0084 84.524 58.3684 84.482 58.6564 84.398C58.9444 84.302 59.1844 84.188 59.3764 84.056C59.5684 83.924 59.7364 83.798 59.8804 83.678C60.0724 83.57 60.2524 83.516 60.4204 83.516C60.6364 83.516 60.8164 83.594 60.9604 83.75C61.1044 83.894 61.1764 84.068 61.1764 84.272C61.1764 84.536 61.0444 84.776 60.7804 84.992C60.4564 85.304 60.0064 85.58 59.4304 85.82C58.8664 86.06 58.2724 86.18 57.6484 86.18ZM64.5291 86C64.2651 86 64.0491 85.916 63.8811 85.748C63.7131 85.568 63.6291 85.346 63.6291 85.082V77.45C63.6291 77.186 63.7131 76.97 63.8811 76.802C64.0491 76.622 64.2651 76.532 64.5291 76.532C64.7811 76.532 64.9911 76.622 65.1591 76.802C65.3391 76.97 65.4291 77.186 65.4291 77.45V79.466L65.2491 78.692C65.3451 78.356 65.4891 78.044 65.6811 77.756C65.8851 77.468 66.1251 77.216 66.4011 77C66.6771 76.784 66.9831 76.616 67.3191 76.496C67.6671 76.376 68.0271 76.316 68.3991 76.316C68.7111 76.316 68.9811 76.4 69.2091 76.568C69.4371 76.736 69.5511 76.946 69.5511 77.198C69.5511 77.522 69.4671 77.762 69.2991 77.918C69.1311 78.062 68.9451 78.134 68.7411 78.134C68.5611 78.134 68.3871 78.098 68.2191 78.026C68.0511 77.942 67.8531 77.9 67.6251 77.9C67.3731 77.9 67.1151 77.966 66.8511 78.098C66.5871 78.23 66.3471 78.428 66.1311 78.692C65.9151 78.944 65.7411 79.244 65.6091 79.592C65.4891 79.94 65.4291 80.33 65.4291 80.762V85.082C65.4291 85.346 65.3391 85.568 65.1591 85.748C64.9911 85.916 64.7811 86 64.5291 86Z" fill="white"/>
<defs>
<clipPath id="clip0">
<rect width="28" height="28" fill="white" transform="translate(21 18)"/>
</clipPath>
</defs>
</svg>
