<svg width="36" height="35" viewBox="0 0 36 35" fill="none" xmlns="http://www.w3.org/2000/svg">
<g clip-path="url(#clip0)">
<path d="M18.0127 0C8.44019 0 0.67749 7.7627 0.67749 17.3352C0.67749 26.9077 8.44019 34.6704 18.0127 34.6704C27.5852 34.6704 35.3479 26.9077 35.3479 17.3352C35.3479 7.7627 27.5852 0 18.0127 0ZM25.9278 13.5161C25.9354 13.6868 25.9391 13.8582 25.9391 14.0304C25.9391 19.2881 21.937 25.351 14.6182 25.3513H14.6184H14.6182C12.3711 25.3513 10.2801 24.6927 8.51928 23.564C8.83061 23.6008 9.1475 23.619 9.46836 23.619C11.3327 23.619 13.0483 22.9831 14.4103 21.9158C12.6684 21.8835 11.1999 20.7332 10.6931 19.1522C10.9356 19.1987 11.1851 19.2241 11.4408 19.2241C11.804 19.2241 12.1558 19.1752 12.4902 19.0839C10.6695 18.7194 9.29801 17.1104 9.29801 15.1836C9.29801 15.1657 9.29801 15.1495 9.29854 15.1329C9.83471 15.431 10.4479 15.6103 11.1007 15.6304C10.0323 14.9175 9.33001 13.6989 9.33001 12.3184C9.33001 11.5894 9.52708 10.9065 9.86883 10.3184C11.831 12.726 14.7634 14.3094 18.0704 14.4758C18.0021 14.1843 17.9669 13.8806 17.9669 13.5685C17.9669 11.372 19.749 9.58996 21.9463 9.58996C23.0908 9.58996 24.1246 10.0738 24.8507 10.8472C25.7571 10.6684 26.6083 10.3372 27.3773 9.88146C27.0797 10.8102 26.4491 11.5894 25.6275 12.0822C26.4324 11.9859 27.1995 11.7725 27.9124 11.4556C27.3799 12.2536 26.7046 12.9546 25.9278 13.5161Z" fill="#1A1A1A"/>
</g>
<defs>
<clipPath id="clip0">
<rect width="34.6704" height="34.6704" fill="white" transform="translate(0.67749)"/>
</clipPath>
</defs>
</svg>
