<svg width="36" height="35" viewBox="0 0 36 35" fill="none" xmlns="http://www.w3.org/2000/svg">
<g clip-path="url(#clip0)">
<path d="M15.5239 20.5831L21.1628 17.3354L15.5239 14.0876V20.5831Z" fill="#1A1A1A"/>
<path d="M17.6831 0C8.1106 0 0.3479 7.7627 0.3479 17.3352C0.3479 26.9077 8.1106 34.6704 17.6831 34.6704C27.2556 34.6704 35.0183 26.9077 35.0183 17.3352C35.0183 7.7627 27.2556 0 17.6831 0ZM28.515 17.3529C28.515 17.3529 28.515 20.8686 28.069 22.5639C27.819 23.4918 27.0874 24.2234 26.1595 24.4731C24.4642 24.9194 17.6831 24.9194 17.6831 24.9194C17.6831 24.9194 10.9197 24.9194 9.20675 24.4554C8.27883 24.2057 7.54718 23.4738 7.29722 22.5459C6.85098 20.8686 6.85098 17.3352 6.85098 17.3352C6.85098 17.3352 6.85098 13.8198 7.29722 12.1245C7.54692 11.1966 8.29655 10.447 9.20675 10.1973C10.902 9.75105 17.6831 9.75105 17.6831 9.75105C17.6831 9.75105 24.4642 9.75105 26.1595 10.215C27.0874 10.4647 27.819 11.1966 28.069 12.1245C28.5329 13.8198 28.515 17.3529 28.515 17.3529Z" fill="#1A1A1A"/>
</g>
<defs>
<clipPath id="clip0">
<rect width="34.6704" height="34.6704" fill="white" transform="translate(0.3479)"/>
</clipPath>
</defs>
</svg>
