<svg width="252" height="173" viewBox="0 0 252 173" fill="none" xmlns="http://www.w3.org/2000/svg">
<path d="M14.6004 113.795C14.6004 113.795 38.7125 72.1127 92.5319 77.5781C146.351 83.0436 214.089 10.9161 214.089 10.9161C214.089 10.9161 214.152 11.4794 214.245 12.5259C220.387 83.2199 152.055 137.478 84.5521 115.341C59.4609 107.102 31.3406 102.369 14.6004 113.795Z" fill="#13514E"/>
<path d="M14.6002 113.795C14.6002 113.795 49.9784 84.429 87.8673 94.163C125.756 103.897 214.023 63.7707 214.089 10.9162" stroke="#1A1A1A" stroke-width="2" stroke-miterlimit="10"/>
<path d="M163.433 136.651C163.433 136.651 147.403 100.751 180.151 88.3194C212.898 75.888 199.158 5.94212 199.158 5.94212L200.357 6.99721C252.844 53.7225 253.85 111.608 202.157 116.612C182.906 118.556 164.478 123.759 163.433 136.651Z" fill="#FECCC4"/>
<path d="M163.433 136.651C163.433 136.651 162.064 105.817 189.182 101.116C216.301 96.4155 235.892 42.2712 199.131 5.94945" stroke="#1A1A1A" stroke-width="2" stroke-miterlimit="10"/>
</svg>
