<svg width="24" height="24" viewBox="0 0 24 24" fill="none" xmlns="http://www.w3.org/2000/svg">
<g clip-path="url(#clip0)">
<path d="M23.6389 11.8195C23.6389 5.29105 18.3479 0 11.8195 0C5.29105 0 0 5.29105 0 11.8195C0 18.3479 5.29105 23.6389 11.8195 23.6389C11.8887 23.6389 11.958 23.6389 12.0272 23.6343V14.4373H9.48789V11.4778H12.0272V9.29859C12.0272 6.7731 13.5693 5.39724 15.8224 5.39724C16.9027 5.39724 17.8308 5.47573 18.0985 5.51267V8.15358H16.5472C15.3237 8.15358 15.0837 8.73532 15.0837 9.58946V11.4732H18.0154L17.6322 14.4327H15.0837V23.1818C20.0238 21.7644 23.6389 17.2167 23.6389 11.8195Z" fill="#1A1A1A"/>
</g>
<defs>
<clipPath id="clip0">
<rect width="23.6389" height="23.6389" fill="white"/>
</clipPath>
</defs>
</svg>
